<svg width="316" height="316" viewBox="0 0 316 316" fill="none" xmlns="http://www.w3.org/2000/svg">
<g clip-path="url(#clip0_1404_8689)">
<path d="M229.411 229.424C268.935 189.9 268.935 125.819 229.411 86.2944C189.886 46.7701 125.805 46.77 86.2807 86.2941C46.7565 125.818 46.7567 189.9 86.281 229.424C125.805 268.948 189.887 268.948 229.411 229.424Z" fill="#CB90E2"/>
<path d="M231.048 64.2425C231.158 64.3282 231.288 64.3697 231.416 64.3697C231.594 64.3697 231.77 64.2907 231.888 64.1402C232.091 63.8803 232.044 63.5046 231.785 63.3016C229.887 61.8184 227.923 60.3754 225.948 59.0135C225.676 58.8259 225.304 58.8946 225.117 59.1663C224.93 59.4381 224.998 59.8102 225.27 59.9974C227.225 61.3456 229.17 62.7743 231.048 64.2425Z" fill="#CB90E2"/>
<path d="M241.784 73.7332C241.901 73.8498 242.053 73.9078 242.206 73.9078C242.36 73.9078 242.513 73.8494 242.629 73.7321C242.862 73.4982 242.861 73.1198 242.628 72.8872C240.927 71.1914 239.151 69.5241 237.35 67.9315C237.103 67.7138 236.725 67.7368 236.507 67.9836C236.288 68.2309 236.311 68.6085 236.559 68.827C238.342 70.4034 240.1 72.0545 241.784 73.7332Z" fill="#CB90E2"/>
<path d="M251.303 84.438C251.421 84.5877 251.597 84.6659 251.774 84.6659C251.903 84.6659 252.033 84.6241 252.143 84.538C252.403 84.3341 252.447 83.9581 252.243 83.6986C250.758 81.8121 249.195 79.9449 247.598 78.1492C247.379 77.9023 247.001 77.8806 246.755 78.0998C246.508 78.3191 246.486 78.6971 246.705 78.9436C248.287 80.7215 249.833 82.5701 251.303 84.438Z" fill="#CB90E2"/>
<path d="M259.466 96.2013C259.578 96.3866 259.775 96.4885 259.977 96.4885C260.083 96.4885 260.19 96.4604 260.287 96.4016C260.569 96.2302 260.659 95.8624 260.487 95.5804C259.24 93.5295 257.913 91.4894 256.544 89.516C256.355 89.245 255.983 89.177 255.712 89.3655C255.441 89.5539 255.373 89.926 255.562 90.1973C256.918 92.151 258.231 94.171 259.466 96.2013Z" fill="#CB90E2"/>
<path d="M276.436 150.349C276.455 150.666 276.718 150.91 277.032 150.91C277.044 150.91 277.057 150.91 277.069 150.909C277.399 150.889 277.649 150.605 277.629 150.276C277.48 147.873 277.258 145.448 276.967 143.069C276.927 142.742 276.628 142.505 276.302 142.549C275.974 142.588 275.741 142.887 275.781 143.214C276.069 145.569 276.289 147.97 276.436 150.349Z" fill="#CB90E2"/>
<path d="M143.764 275.586C141.404 275.304 139.02 274.945 136.678 274.52C136.355 274.464 136.042 274.678 135.983 275.002C135.924 275.327 136.14 275.638 136.465 275.697C138.831 276.126 141.239 276.488 143.622 276.773C143.646 276.776 143.67 276.777 143.694 276.777C143.992 276.777 144.25 276.554 144.286 276.25C144.326 275.923 144.092 275.625 143.764 275.586Z" fill="#CB90E2"/>
<path d="M212.741 51.7796C212.588 52.0719 212.701 52.433 212.993 52.5862C215.1 53.6903 217.203 54.8745 219.244 56.1065C219.341 56.1649 219.447 56.1926 219.552 56.1926C219.755 56.1926 219.952 56.0899 220.065 55.9038C220.235 55.6214 220.144 55.2541 219.862 55.0834C217.8 53.8388 215.676 52.6427 213.548 51.5276C213.257 51.374 212.894 51.487 212.741 51.7796Z" fill="#CB90E2"/>
<path d="M129.669 273.027C127.359 272.461 125.036 271.817 122.765 271.112C122.452 271.016 122.115 271.189 122.017 271.505C121.919 271.821 122.095 272.156 122.411 272.254C124.704 272.965 127.051 273.616 129.385 274.189C129.433 274.201 129.481 274.206 129.528 274.206C129.797 274.206 130.041 274.023 130.108 273.751C130.186 273.429 129.99 273.106 129.669 273.027Z" fill="#CB90E2"/>
<path d="M199.905 46.7128C202.137 47.5557 204.369 48.4769 206.54 49.451C206.619 49.4869 206.702 49.5035 206.784 49.5035C207.012 49.5035 207.23 49.3723 207.329 49.1508C207.465 48.8498 207.33 48.4958 207.029 48.3608C204.836 47.3764 202.582 46.4458 200.328 45.5946C200.019 45.4773 199.674 45.6345 199.557 45.9426C199.441 46.2515 199.596 46.5963 199.905 46.7128Z" fill="#CB90E2"/>
<path d="M128.698 42.1282C128.765 42.4004 129.009 42.5825 129.277 42.5825C129.325 42.5825 129.373 42.577 129.421 42.5651C131.727 41.9951 134.084 41.4879 136.426 41.0574C136.751 40.9978 136.965 40.6861 136.906 40.3618C136.847 40.0379 136.537 39.8226 136.21 39.8819C133.845 40.3164 131.464 40.8287 129.134 41.4046C128.814 41.484 128.618 41.8079 128.698 42.1282Z" fill="#CB90E2"/>
<path d="M158.064 276.431H158C155.637 276.431 153.249 276.36 150.901 276.222C150.573 276.202 150.289 276.454 150.27 276.783C150.25 277.112 150.501 277.395 150.831 277.415C153.202 277.555 155.614 277.626 158 277.626H158.064C158.394 277.626 158.662 277.359 158.662 277.028C158.662 276.698 158.394 276.431 158.064 276.431Z" fill="#CB90E2"/>
<path d="M115.537 46.8828C115.608 46.8828 115.68 46.8701 115.75 46.8436C117.971 45.9972 120.249 45.2072 122.521 44.4962C122.836 44.3978 123.011 44.0624 122.912 43.7472C122.814 43.432 122.478 43.2586 122.163 43.3554C119.869 44.0739 117.568 44.8714 115.324 45.7266C115.016 45.8443 114.861 46.1895 114.979 46.498C115.07 46.7358 115.297 46.8828 115.537 46.8828Z" fill="#CB90E2"/>
<path d="M157.808 39.1014H158C160.322 39.1014 162.668 39.169 164.973 39.3029C164.985 39.3037 164.996 39.3037 165.008 39.3037C165.322 39.3037 165.586 39.0584 165.604 38.7408C165.624 38.411 165.372 38.1285 165.042 38.1092C162.714 37.9745 160.346 37.9058 157.998 37.9058L157.809 37.9062C157.479 37.9062 157.211 38.1736 157.211 38.5038C157.211 38.834 157.479 39.1014 157.808 39.1014Z" fill="#CB90E2"/>
<path d="M186.207 42.4745C188.517 43.0378 190.84 43.6796 193.114 44.3831C193.173 44.4013 193.232 44.41 193.291 44.41C193.546 44.41 193.782 44.2453 193.862 43.9885C193.959 43.6729 193.783 43.3388 193.468 43.2408C191.171 42.5306 188.823 41.882 186.491 41.3128C186.17 41.237 185.847 41.4309 185.769 41.752C185.69 42.0728 185.887 42.3959 186.207 42.4745Z" fill="#CB90E2"/>
<path d="M172.111 39.9318C173.99 40.1542 179.27 40.9991 179.305 40.9991C179.588 40.9991 179.84 40.7964 179.892 40.5077C179.951 40.1826 179.735 39.8717 179.41 39.8133C179.219 39.7789 174.083 38.9617 172.251 38.7444C171.927 38.7085 171.627 38.9399 171.588 39.2678C171.549 39.5956 171.783 39.8927 172.111 39.9318Z" fill="#CB90E2"/>
<path d="M143.437 39.9814C143.461 39.9814 143.485 39.9798 143.51 39.9771C145.864 39.6903 148.265 39.4711 150.646 39.3253C150.975 39.3052 151.226 39.022 151.206 38.6921C151.186 38.3627 150.902 38.1115 150.573 38.132C148.168 38.2794 145.744 38.501 143.366 38.7905C143.038 38.8304 142.805 39.1282 142.845 39.4561C142.881 39.759 143.139 39.9814 143.437 39.9814Z" fill="#CB90E2"/>
<path d="M269.757 199.502C269.451 199.384 269.104 199.54 268.987 199.849C268.14 202.078 267.216 204.309 266.237 206.479C266.102 206.78 266.236 207.134 266.537 207.269C266.616 207.305 266.7 207.322 266.782 207.322C267.01 207.322 267.228 207.191 267.328 206.97C268.315 204.779 269.249 202.525 270.104 200.273C270.221 199.964 270.066 199.619 269.757 199.502Z" fill="#CB90E2"/>
<path d="M273.969 185.72C273.65 185.642 273.325 185.838 273.247 186.158C272.679 188.468 272.033 190.791 271.327 193.062C271.229 193.377 271.405 193.712 271.721 193.81C271.779 193.828 271.839 193.837 271.898 193.837C272.153 193.837 272.389 193.673 272.469 193.416C273.182 191.123 273.835 188.777 274.407 186.443C274.486 186.123 274.29 185.799 273.969 185.72Z" fill="#CB90E2"/>
<path d="M271.822 122.646C271.88 122.646 271.94 122.637 272 122.619C272.315 122.52 272.49 122.185 272.392 121.87C271.674 119.58 270.875 117.28 270.017 115.031C269.9 114.723 269.552 114.568 269.246 114.686C268.937 114.804 268.783 115.149 268.9 115.458C269.75 117.684 270.541 119.961 271.251 122.227C271.331 122.483 271.567 122.646 271.822 122.646Z" fill="#CB90E2"/>
<path d="M266.693 109.206C266.775 109.206 266.858 109.188 266.939 109.153C267.24 109.016 267.373 108.662 267.236 108.361C266.246 106.175 265.176 103.991 264.055 101.87C263.902 101.578 263.54 101.466 263.248 101.621C262.956 101.775 262.844 102.137 262.999 102.428C264.108 104.528 265.167 106.69 266.148 108.855C266.248 109.075 266.465 109.206 266.693 109.206Z" fill="#CB90E2"/>
<path d="M263.898 212.678C263.606 212.524 263.245 212.636 263.091 212.928C261.984 215.034 260.796 217.135 259.561 219.173C259.39 219.455 259.48 219.823 259.762 219.994C259.859 220.052 259.966 220.08 260.072 220.08C260.273 220.08 260.471 219.978 260.583 219.792C261.831 217.734 263.03 215.612 264.149 213.485C264.303 213.192 264.19 212.831 263.898 212.678Z" fill="#CB90E2"/>
<path d="M277.262 156.915C276.932 156.915 276.665 157.182 276.665 157.512V157.766C276.665 160.154 276.593 162.563 276.452 164.928C276.432 165.258 276.683 165.541 277.013 165.56C277.025 165.561 277.037 165.561 277.049 165.561C277.363 165.561 277.626 165.317 277.645 164.999C277.788 162.612 277.86 160.178 277.86 157.766V157.513C277.86 157.182 277.593 156.915 277.262 156.915Z" fill="#CB90E2"/>
<path d="M275.285 136.62C275.321 136.62 275.357 136.617 275.394 136.611C275.718 136.551 275.933 136.239 275.873 135.915C275.437 133.551 274.923 131.171 274.346 128.84C274.266 128.519 273.939 128.323 273.622 128.403C273.302 128.483 273.107 128.807 273.186 129.127C273.758 131.434 274.266 133.791 274.698 136.131C274.751 136.419 275.002 136.62 275.285 136.62Z" fill="#CB90E2"/>
<path d="M276.477 171.543C276.149 171.504 275.852 171.738 275.812 172.066C275.529 174.425 275.169 176.809 274.743 179.151C274.684 179.476 274.899 179.787 275.225 179.846C275.261 179.852 275.296 179.855 275.332 179.855C275.616 179.855 275.867 179.653 275.92 179.364C276.349 176.999 276.712 174.591 276.999 172.208C277.038 171.88 276.805 171.583 276.477 171.543Z" fill="#CB90E2"/>
<path d="M236.681 246.597C234.896 248.179 233.044 249.723 231.179 251.186C230.919 251.39 230.873 251.766 231.077 252.026C231.195 252.176 231.37 252.254 231.548 252.254C231.677 252.254 231.806 252.213 231.916 252.127C233.801 250.649 235.67 249.089 237.474 247.491C237.72 247.272 237.743 246.895 237.524 246.648C237.305 246.399 236.928 246.378 236.681 246.597Z" fill="#CB90E2"/>
<path d="M200.131 268.735C197.91 269.578 195.631 270.365 193.358 271.074C193.043 271.172 192.867 271.507 192.966 271.823C193.046 272.078 193.281 272.242 193.537 272.242C193.595 272.242 193.655 272.233 193.715 272.215C196.01 271.499 198.312 270.704 200.557 269.852C200.865 269.735 201.02 269.389 200.903 269.081C200.786 268.772 200.441 268.617 200.131 268.735Z" fill="#CB90E2"/>
<path d="M255.661 225.192C254.31 227.144 252.879 229.087 251.406 230.963C251.202 231.223 251.248 231.599 251.508 231.803C251.617 231.888 251.747 231.93 251.876 231.93C252.053 231.93 252.229 231.852 252.347 231.701C253.834 229.806 255.279 227.844 256.644 225.872C256.832 225.6 256.764 225.228 256.492 225.04C256.222 224.851 255.849 224.919 255.661 225.192Z" fill="#CB90E2"/>
<path d="M186.456 272.997C184.153 273.564 181.796 274.069 179.45 274.498C179.125 274.556 178.91 274.868 178.969 275.193C179.022 275.481 179.274 275.683 179.557 275.683C179.592 275.683 179.629 275.68 179.665 275.673C182.035 275.24 184.416 274.73 186.742 274.158C187.062 274.079 187.258 273.755 187.179 273.434C187.1 273.114 186.775 272.916 186.456 272.997Z" fill="#CB90E2"/>
<path d="M207.23 267.081C209.417 266.095 211.602 265.028 213.727 263.911C214.019 263.758 214.132 263.396 213.977 263.104C213.824 262.812 213.462 262.7 213.17 262.853C211.067 263.959 208.903 265.015 206.739 265.992C206.438 266.127 206.304 266.482 206.44 266.782C206.54 267.003 206.757 267.134 206.986 267.134C207.067 267.135 207.151 267.118 207.23 267.081Z" fill="#CB90E2"/>
<path d="M246.813 236.467C245.235 238.247 243.581 240.002 241.898 241.685C241.665 241.918 241.665 242.297 241.898 242.53C242.015 242.647 242.168 242.705 242.321 242.705C242.474 242.705 242.627 242.647 242.744 242.53C244.443 240.831 246.113 239.057 247.708 237.26C247.926 237.013 247.904 236.636 247.657 236.416C247.411 236.198 247.032 236.219 246.813 236.467Z" fill="#CB90E2"/>
<path d="M172.365 275.57C170.006 275.855 167.604 276.071 165.229 276.214C164.899 276.234 164.648 276.517 164.668 276.846C164.687 277.164 164.95 277.408 165.264 277.408C165.276 277.408 165.288 277.408 165.3 277.407C167.7 277.263 170.125 277.044 172.508 276.757C172.835 276.717 173.069 276.42 173.03 276.092C172.99 275.765 172.696 275.534 172.365 275.57Z" fill="#CB90E2"/>
<path d="M226.244 255.587C226.056 255.316 225.684 255.248 225.412 255.436C223.462 256.785 221.439 258.096 219.402 259.33C219.12 259.501 219.03 259.869 219.201 260.152C219.313 260.337 219.511 260.439 219.713 260.439C219.819 260.439 219.925 260.411 220.022 260.353C222.08 259.105 224.122 257.782 226.093 256.419C226.364 256.231 226.432 255.86 226.244 255.587Z" fill="#CB90E2"/>
<path d="M46.1984 116.149C46.2679 116.175 46.3394 116.188 46.4097 116.188C46.6511 116.188 46.8782 116.04 46.9691 115.801C47.8116 113.573 48.7339 111.342 49.7108 109.168C49.8462 108.867 49.7116 108.513 49.411 108.378C49.1096 108.243 48.7556 108.376 48.6206 108.678C47.6338 110.873 46.702 113.128 45.8508 115.378C45.7339 115.687 45.8899 116.032 46.1984 116.149Z" fill="#CB90E2"/>
<path d="M39.5091 144.116C39.5328 144.119 39.5569 144.12 39.5802 144.12C39.8792 144.12 40.1372 143.897 40.1731 143.593C40.4543 141.229 40.8118 138.844 41.2345 136.507C41.2933 136.182 41.078 135.871 40.753 135.813C40.4259 135.753 40.117 135.97 40.0585 136.294C39.6312 138.655 39.2705 141.064 38.9861 143.452C38.9474 143.78 39.1813 144.077 39.5091 144.116Z" fill="#CB90E2"/>
<path d="M42.0008 129.936C42.0482 129.948 42.096 129.953 42.1434 129.953C42.412 129.953 42.6565 129.77 42.7232 129.497C43.2881 127.186 43.9319 124.862 44.6358 122.591C44.7334 122.276 44.5572 121.941 44.2416 121.843C43.9264 121.745 43.5914 121.922 43.4939 122.238C42.7825 124.532 42.1327 126.879 41.5623 129.213C41.4837 129.534 41.68 129.858 42.0008 129.936Z" fill="#CB90E2"/>
<path d="M90.2867 256.553C90.4763 256.553 90.6632 256.463 90.7789 256.295C90.9665 256.023 90.8986 255.651 90.6268 255.463C88.6724 254.113 86.7294 252.682 84.8527 251.211C84.5932 251.008 84.2176 251.054 84.0137 251.313C83.8099 251.573 83.8558 251.948 84.1157 252.152C86.0109 253.637 87.9732 255.082 89.9478 256.446C90.0509 256.518 90.1694 256.553 90.2867 256.553Z" fill="#CB90E2"/>
<path d="M41.2807 179.278C41.2214 178.953 40.9125 178.74 40.5851 178.797C40.2604 178.857 40.0455 179.168 40.1052 179.493C40.5377 181.857 41.0488 184.237 41.6239 186.57C41.6911 186.842 41.9348 187.024 42.2034 187.024C42.2508 187.024 42.299 187.019 42.3472 187.007C42.6675 186.928 42.863 186.604 42.784 186.284C42.2149 183.974 41.7089 181.617 41.2807 179.278Z" fill="#CB90E2"/>
<path d="M39.3353 157.893V157.766C39.3353 155.427 39.404 153.06 39.5403 150.73C39.5592 150.401 39.308 150.118 38.9782 150.098C38.6511 150.077 38.366 150.331 38.3466 150.66C38.2095 153.014 38.1396 155.404 38.1396 157.766V157.893C38.1396 158.224 38.4074 158.491 38.7373 158.491C39.0679 158.491 39.3353 158.224 39.3353 157.893Z" fill="#CB90E2"/>
<path d="M59.8753 226.169C59.9926 226.169 60.1111 226.135 60.215 226.063C60.4864 225.875 60.5539 225.502 60.3659 225.231C59.0126 223.277 57.7016 221.255 56.4688 219.224C56.2982 218.941 55.9308 218.852 55.648 219.023C55.366 219.194 55.2755 219.562 55.4469 219.843C56.692 221.895 58.0164 223.937 59.3835 225.912C59.4996 226.079 59.6857 226.169 59.8753 226.169Z" fill="#CB90E2"/>
<path d="M74.1261 241.709C73.8931 241.476 73.5143 241.476 73.2808 241.709C73.0478 241.943 73.0478 242.322 73.2812 242.555C74.9837 244.256 76.7576 245.925 78.5541 247.516C78.6678 247.616 78.8092 247.666 78.9499 247.666C79.115 247.666 79.2793 247.598 79.3974 247.465C79.6162 247.218 79.5933 246.84 79.3464 246.621C77.5681 245.046 75.812 243.393 74.1261 241.709Z" fill="#CB90E2"/>
<path d="M44.7112 193.185C44.6129 192.869 44.2783 192.695 43.9623 192.793C43.6475 192.891 43.4717 193.226 43.5701 193.541C44.2866 195.835 45.0833 198.137 45.9373 200.382C46.0282 200.621 46.2553 200.767 46.4959 200.767C46.5666 200.767 46.6384 200.755 46.7084 200.728C47.0169 200.611 47.1717 200.265 47.0544 199.957C46.2091 197.734 45.4207 195.456 44.7112 193.185Z" fill="#CB90E2"/>
<path d="M39.5557 165.057C39.5359 164.728 39.2496 164.473 38.9229 164.497C38.5935 164.516 38.3427 164.8 38.3628 165.129C38.5086 167.531 38.7286 169.955 39.0169 172.337C39.0537 172.641 39.3112 172.863 39.6094 172.863C39.6335 172.863 39.6576 172.861 39.6817 172.858C40.0096 172.819 40.243 172.521 40.2031 172.193C39.9179 169.836 39.6999 167.435 39.5557 165.057Z" fill="#CB90E2"/>
<path d="M52.0424 102.968C52.1309 103.015 52.2261 103.037 52.3193 103.037C52.5342 103.037 52.7424 102.92 52.8494 102.716C53.9542 100.61 55.14 98.5077 56.3728 96.4679C56.5435 96.1855 56.4526 95.8181 56.1702 95.6475C55.8878 95.4772 55.5208 95.5677 55.3498 95.8501C54.1043 97.9104 52.9071 100.034 51.7908 102.162C51.6376 102.454 51.7501 102.815 52.0424 102.968Z" fill="#CB90E2"/>
<path d="M115.976 268.775C113.748 267.931 111.517 267.008 109.345 266.03C109.043 265.896 108.69 266.029 108.554 266.33C108.419 266.63 108.553 266.985 108.854 267.12C111.048 268.108 113.302 269.041 115.553 269.893C115.623 269.919 115.694 269.932 115.765 269.932C116.006 269.932 116.233 269.785 116.324 269.546C116.44 269.237 116.285 268.892 115.976 268.775Z" fill="#CB90E2"/>
<path d="M64.6188 230.994C64.4146 230.734 64.039 230.689 63.7795 230.893C63.52 231.097 63.4749 231.473 63.6783 231.732C65.16 233.619 66.7206 235.488 68.3164 237.287C68.4345 237.42 68.5985 237.488 68.764 237.488C68.905 237.488 69.0464 237.438 69.1602 237.337C69.407 237.118 69.4299 236.74 69.2107 236.493C67.6307 234.713 66.0855 232.863 64.6188 230.994Z" fill="#CB90E2"/>
<path d="M59.7742 90.7029C59.9642 90.7029 60.1506 90.6128 60.2664 90.4445C61.6192 88.4846 63.0487 86.5412 64.5154 84.6689C64.7188 84.4086 64.6734 84.0333 64.4135 83.8295C64.1536 83.6257 63.7779 83.6715 63.5745 83.9314C62.0932 85.8231 60.6491 87.7862 59.2828 89.7659C59.0956 90.0377 59.1639 90.4098 59.4353 90.597C59.5388 90.6689 59.6573 90.7029 59.7742 90.7029Z" fill="#CB90E2"/>
<path d="M68.6553 79.3612C68.8205 79.3612 68.9852 79.2932 69.1033 79.1597C70.6797 77.3783 72.3312 75.6209 74.0123 73.937C74.2454 73.7032 74.245 73.3248 74.0115 73.0913C73.7777 72.8579 73.3989 72.8583 73.1662 73.0921C71.4685 74.7934 69.8005 76.5677 68.2082 78.3674C67.9898 78.6146 68.0127 78.9922 68.26 79.2111C68.3729 79.3118 68.5147 79.3612 68.6553 79.3612Z" fill="#CB90E2"/>
<path d="M102.339 263.945C102.428 263.991 102.523 264.014 102.616 264.014C102.831 264.014 103.039 263.897 103.146 263.694C103.3 263.401 103.187 263.04 102.895 262.886C100.79 261.781 98.6884 260.595 96.6478 259.36C96.3662 259.19 95.9984 259.28 95.8274 259.562C95.6564 259.844 95.7468 260.212 96.0293 260.382C98.09 261.63 100.213 262.829 102.339 263.945Z" fill="#CB90E2"/>
<path d="M78.4308 68.125C78.1839 68.3443 78.1618 68.7223 78.381 68.9687C78.4991 69.1019 78.6631 69.1694 78.8282 69.1694C78.9692 69.1694 79.111 69.1196 79.2248 69.0185C81.0038 67.4381 82.8532 65.8921 84.722 64.4235C84.9815 64.2193 85.0265 63.844 84.8223 63.5841C84.6181 63.3246 84.2428 63.28 83.9829 63.4838C82.0956 64.967 80.2277 66.5288 78.4308 68.125Z" fill="#CB90E2"/>
<path d="M52.4145 213.869C52.5081 213.869 52.6037 213.846 52.6922 213.8C52.9841 213.646 53.0963 213.284 52.9426 212.992C51.8355 210.889 50.778 208.726 49.8004 206.563C49.6641 206.262 49.3098 206.128 49.01 206.264C48.709 206.4 48.5755 206.754 48.7114 207.055C49.6989 209.24 50.7666 211.426 51.8852 213.549C51.9923 213.752 52.1996 213.869 52.4145 213.869Z" fill="#CB90E2"/>
<path d="M102.44 52.8074C102.534 52.8074 102.629 52.7852 102.718 52.7382C104.819 51.6303 106.982 50.5713 109.146 49.5924C109.447 49.4566 109.58 49.1023 109.444 48.8017C109.308 48.5007 108.954 48.3676 108.653 48.5034C106.467 49.4925 104.283 50.5618 102.16 51.6812C101.868 51.8349 101.756 52.1967 101.91 52.4886C102.017 52.6916 102.225 52.8074 102.44 52.8074Z" fill="#CB90E2"/>
<path d="M90.1433 60.2747C90.2607 60.2747 90.3796 60.2403 90.4834 60.168C92.4351 58.8155 94.456 57.5029 96.489 56.2674C96.771 56.096 96.8611 55.7282 96.6897 55.4466C96.5186 55.1645 96.1509 55.0749 95.8689 55.2459C93.8149 56.4937 91.7739 57.8189 89.8025 59.1856C89.5315 59.3737 89.4635 59.7458 89.652 60.0171C89.7677 60.1846 89.9541 60.2747 90.1433 60.2747Z" fill="#CB90E2"/>
<path d="M216.646 185.292L206.102 195.836L191.328 181.062C188.416 178.15 188.416 173.429 191.328 170.518C194.239 167.606 198.961 167.606 201.872 170.518L216.646 185.292Z" fill="#FDDBBB"/>
<path d="M200.355 169.357V190.089L206.102 195.836L216.646 185.292L201.872 170.518C201.409 170.054 200.896 169.673 200.355 169.357Z" fill="#F2F2F2"/>
<path d="M202.004 264.449V158.429C202.004 152.738 206.617 148.125 212.307 148.125H251.819C257.51 148.125 262.123 152.738 262.123 158.429V264.449C262.123 270.14 257.51 274.753 251.819 274.753H212.307C206.616 274.753 202.004 270.14 202.004 264.449Z" fill="#F2F2F2"/>
<path d="M274.026 202.306C267.452 202.306 262.123 207.635 262.123 214.209V260.8V264.45C262.123 270.14 257.509 274.753 251.819 274.753H215.062L222.978 282.67V295.463H270.232V282.208C274.274 279.561 276.945 274.995 276.945 269.803V202.306H274.026Z" fill="#FDDBBB"/>
<path d="M259.656 259.292L259.656 163.586L204.47 163.586L204.47 259.292L259.656 259.292Z" fill="#666666"/>
<path d="M205.227 258.564L258.899 258.564L258.899 164.315L205.227 164.315L205.227 258.564Z" fill="#FBB03B"/>
<path d="M225.034 187.281C221.434 187.3 218.474 184.371 218.455 180.772C218.454 180.643 218.349 180.54 218.221 180.541C218.093 180.541 217.989 180.646 217.99 180.774C218.009 184.372 215.082 187.333 211.483 187.353C211.482 187.353 211.482 187.353 211.48 187.353C211.352 187.354 211.248 187.459 211.249 187.587C211.249 187.716 211.354 187.82 211.483 187.819C211.484 187.819 211.484 187.819 211.486 187.819C215.082 187.801 218.04 190.727 218.062 194.323C218.062 194.325 218.061 194.326 218.061 194.328C218.062 194.457 218.167 194.561 218.296 194.56C218.425 194.559 218.529 194.454 218.528 194.325C218.528 194.323 218.527 194.322 218.527 194.32C218.51 190.723 221.438 187.765 225.036 187.746C225.164 187.745 225.268 187.64 225.267 187.512C225.267 187.384 225.162 187.28 225.034 187.281Z" fill="#FDDFB1"/>
<path d="M251.461 193.894C249.089 193.907 247.137 191.976 247.124 189.604C247.124 189.519 247.055 189.451 246.97 189.451C246.886 189.452 246.818 189.521 246.818 189.605C246.831 191.977 244.901 193.928 242.529 193.942C242.529 193.942 242.528 193.942 242.527 193.942C242.443 193.942 242.374 194.011 242.375 194.096C242.375 194.181 242.444 194.249 242.529 194.249C242.53 194.249 242.53 194.248 242.531 194.248C244.901 194.237 246.851 196.165 246.866 198.535C246.866 198.537 246.865 198.537 246.865 198.539C246.865 198.624 246.935 198.693 247.02 198.692C247.105 198.692 247.173 198.622 247.173 198.537C247.173 198.536 247.172 198.535 247.172 198.534C247.162 196.163 249.091 194.213 251.463 194.201C251.547 194.2 251.616 194.131 251.615 194.047C251.615 193.962 251.546 193.894 251.461 193.894Z" fill="#FDDFB1"/>
<path d="M226.679 234.854C224.777 234.864 223.212 233.316 223.201 231.413C223.201 231.345 223.146 231.291 223.078 231.291C223.01 231.291 222.956 231.347 222.956 231.415C222.966 233.317 221.419 234.881 219.517 234.892C219.517 234.892 219.516 234.892 219.515 234.892C219.447 234.892 219.392 234.948 219.393 235.015C219.393 235.083 219.448 235.138 219.516 235.138C219.516 235.138 219.517 235.138 219.518 235.138C221.419 235.128 222.982 236.674 222.994 238.576C222.994 238.576 222.994 238.578 222.994 238.578C222.994 238.647 223.05 238.702 223.118 238.701C223.186 238.701 223.241 238.645 223.241 238.577C223.241 238.576 223.24 238.575 223.24 238.574C223.232 236.673 224.779 235.109 226.681 235.1C226.749 235.099 226.803 235.044 226.803 234.976C226.802 234.908 226.747 234.854 226.679 234.854Z" fill="#FDDFB1"/>
<path d="M221.965 227.129C220.264 225.618 219.414 223.215 219.414 219.916V218.51H228.787V219.499C228.787 221.062 229.082 222.138 229.673 222.728C230.263 223.319 231.044 223.613 232.016 223.613C233.023 223.613 233.795 223.284 234.333 222.624C234.871 221.964 235.141 221.165 235.141 220.228C235.141 219.049 234.767 218.111 234.021 217.416C233.274 216.722 232.336 216.123 231.209 215.62C230.08 215.117 228.856 214.613 227.537 214.109C226.217 213.607 224.994 212.947 223.866 212.13C222.737 211.315 221.8 210.248 221.054 208.928C220.307 207.609 219.934 205.89 219.934 203.772C219.934 197.28 223.111 193.513 229.464 192.472V189.451H234.255V192.472C237.726 192.819 240.244 193.87 241.806 195.622C243.368 197.376 244.149 200.041 244.149 203.616H235.088V202.835C235.088 201.793 234.862 200.882 234.411 200.101C233.959 199.32 233.265 198.929 232.328 198.929C231.286 198.929 230.522 199.268 230.037 199.945C229.55 200.622 229.308 201.36 229.308 202.158C229.308 203.373 229.698 204.328 230.479 205.022C231.26 205.717 232.241 206.316 233.421 206.819C234.601 207.323 235.869 207.808 237.223 208.277C238.577 208.746 239.844 209.397 241.025 210.23C242.205 211.063 243.186 212.157 243.967 213.511C244.748 214.864 245.138 216.67 245.138 218.926C245.138 222.468 244.218 225.09 242.379 226.79C240.538 228.491 237.83 229.532 234.255 229.915V234.601H229.464V229.915C226.166 229.567 223.666 228.639 221.965 227.129Z" fill="#FDDFB1"/>
<path d="M232.063 271.468C234.518 271.468 236.509 269.478 236.509 267.022C236.509 264.567 234.518 262.577 232.063 262.577C229.608 262.577 227.617 264.567 227.617 267.022C227.617 269.478 229.608 271.468 232.063 271.468Z" fill="#E6E6E6"/>
<path d="M224.317 155.948C224.317 155.461 224.712 155.066 225.199 155.066H238.928C239.415 155.066 239.81 155.461 239.81 155.948C239.81 156.435 239.415 156.83 238.928 156.83H225.199C224.712 156.83 224.317 156.435 224.317 155.948Z" fill="#666666"/>
<path opacity="0.1" d="M246.995 163.585H204.47V259.292H217.131L246.995 163.585Z" fill="#F2F2F2"/>
<path d="M203.52 242.123C203.057 241.66 202.544 241.278 202.004 240.962V261.694L202.478 262.169C205.39 265.081 210.111 265.081 213.023 262.169C215.934 259.258 215.934 254.537 213.023 251.625L203.52 242.123Z" fill="#F2F2F2"/>
<path d="M203.52 219.321C203.057 218.858 202.544 218.476 202.004 218.161V238.893L202.478 239.367C205.39 242.279 210.111 242.279 213.023 239.367C215.934 236.455 215.934 231.735 213.023 228.823L203.52 219.321Z" fill="#F2F2F2"/>
<path d="M203.52 196.514C203.057 196.051 202.544 195.67 202.004 195.354V216.086L202.478 216.561C205.39 219.472 210.111 219.472 213.023 216.561C215.934 213.649 215.934 208.928 213.023 206.017L203.52 196.514Z" fill="#F2F2F2"/>
<path d="M211.374 260.52C208.462 263.432 203.742 263.432 200.83 260.52L191.328 251.018C188.416 248.107 188.416 243.386 191.328 240.474C194.239 237.563 198.961 237.563 201.872 240.474L211.374 249.976C214.286 252.888 214.286 257.608 211.374 260.52Z" fill="#FDDBBB"/>
<path d="M211.374 237.717C208.462 240.628 203.742 240.628 200.83 237.717L191.328 228.215C188.416 225.303 188.416 220.582 191.328 217.67C194.239 214.759 198.961 214.759 201.872 217.67L211.374 227.173C214.286 230.084 214.286 234.805 211.374 237.717Z" fill="#FDDBBB"/>
<path d="M211.374 214.912C208.462 217.824 203.742 217.824 200.83 214.912L191.328 205.41C188.416 202.498 188.416 197.777 191.328 194.866C194.239 191.954 198.961 191.954 201.872 194.866L211.374 204.368C214.286 207.279 214.286 212 211.374 214.912Z" fill="#FDDBBB"/>
<path d="M271.662 295.461H221.549V303.171H271.662V295.461Z" fill="#F2F2F2"/>
<path d="M274.464 303.171H218.746V335.394H274.464V303.171Z" fill="#333333"/>
<path d="M230.88 313.397C231.404 311.168 230.022 308.937 227.793 308.414C225.564 307.89 223.333 309.272 222.81 311.501C222.286 313.729 223.668 315.961 225.897 316.484C228.126 317.008 230.357 315.625 230.88 313.397Z" fill="#666666"/>
<path d="M263.771 266.098V208.167C262.725 209.939 262.123 212.003 262.123 214.209V260.8V264.45C262.123 270.14 257.509 274.753 251.819 274.753H215.062L216.71 276.402H253.467C259.158 276.401 263.771 271.788 263.771 266.098Z" fill="#F2F2F2"/>
<path d="M184.532 75.4907L195.076 86.0348L180.302 100.809C177.391 103.721 172.67 103.721 169.758 100.809C166.846 97.8975 166.846 93.1764 169.758 90.2649L184.532 75.4907Z" fill="#FDDBBB"/>
<path d="M168.597 91.7817H189.33L195.077 86.0349L184.533 75.4908L169.758 90.2649C169.294 90.7283 168.913 91.2414 168.597 91.7817Z" fill="#F2F2F2"/>
<path d="M263.69 90.1333L157.669 90.1333C151.979 90.1333 147.365 85.5201 147.365 79.8297V40.3175C147.365 34.6271 151.979 30.0139 157.669 30.0139L263.69 30.0139C269.38 30.0139 273.993 34.6271 273.993 40.3175V79.8297C273.993 85.5205 269.38 90.1333 263.69 90.1333Z" fill="#F2F2F2"/>
<path d="M201.546 18.1112C201.546 24.6852 206.876 30.0145 213.45 30.0145L260.04 30.0145H263.69C269.381 30.0145 273.994 34.6277 273.994 40.3181V77.0752L281.91 69.159H294.703V21.9048H281.448C278.801 17.8635 274.235 15.1921 269.043 15.1921L201.546 15.1921V18.1112Z" fill="#FDDBBB"/>
<path d="M258.532 32.4815L162.826 32.4814L162.826 87.6669L258.532 87.667L258.532 32.4815Z" fill="#666666"/>
<path d="M257.804 86.91L257.804 33.2378L163.555 33.2377L163.555 86.9099L257.804 86.91Z" fill="#FBB03B"/>
<path d="M186.521 67.1027C186.541 70.7023 183.611 73.6628 180.012 73.6822C179.884 73.683 179.78 73.7877 179.781 73.9156C179.782 74.044 179.887 74.1475 180.015 74.1467C183.613 74.1274 186.573 77.0551 186.594 80.6536C186.594 80.6543 186.594 80.6551 186.594 80.6563C186.594 80.7851 186.699 80.889 186.828 80.8882C186.957 80.8874 187.061 80.7827 187.06 80.6539C187.06 80.6528 187.059 80.6524 187.059 80.6512C187.042 77.0547 189.967 74.0965 193.563 74.0744C193.565 74.0744 193.567 74.0756 193.569 74.0756C193.697 74.0748 193.802 73.9698 193.801 73.841C193.8 73.7118 193.695 73.6079 193.566 73.6087C193.564 73.6087 193.563 73.6099 193.561 73.6099C189.964 73.6265 187.006 70.6984 186.986 67.1007C186.985 66.9723 186.881 66.8688 186.753 66.8696C186.624 66.8696 186.521 66.9743 186.521 67.1027Z" fill="#FDDFB1"/>
<path d="M193.134 40.6756C193.147 43.048 191.216 44.9997 188.844 45.0123C188.759 45.0127 188.691 45.0818 188.691 45.1664C188.692 45.2509 188.761 45.3192 188.846 45.3188C191.218 45.3062 193.168 47.2358 193.182 49.6074C193.182 49.6081 193.182 49.6085 193.182 49.6093C193.182 49.6943 193.251 49.7626 193.336 49.7622C193.421 49.7618 193.49 49.6927 193.489 49.6078C193.489 49.607 193.489 49.6066 193.489 49.6058C193.477 47.2354 195.405 45.2857 197.776 45.2711C197.777 45.2711 197.778 45.2714 197.779 45.2718C197.864 45.2714 197.933 45.2019 197.933 45.117C197.932 45.0321 197.863 44.9633 197.778 44.9637C197.777 44.9637 197.776 44.9645 197.774 44.9645C195.403 44.9752 193.454 43.0456 193.441 40.674C193.441 40.5895 193.371 40.5212 193.287 40.5216C193.202 40.522 193.134 40.5911 193.134 40.6756Z" fill="#FDDFB1"/>
<path d="M234.094 65.4576C234.105 67.3603 232.556 68.9253 230.654 68.9355C230.586 68.9359 230.531 68.9912 230.531 69.0588C230.532 69.1267 230.587 69.1812 230.655 69.1808C232.557 69.1706 234.122 70.7182 234.133 72.6201C234.133 72.6201 234.132 72.6209 234.132 72.6217C234.133 72.6896 234.188 72.7445 234.256 72.7441C234.324 72.7437 234.379 72.6884 234.378 72.6205C234.378 72.6205 234.378 72.6197 234.378 72.6189C234.369 70.7178 235.915 69.1544 237.816 69.1425C237.817 69.1425 237.818 69.1429 237.819 69.1429C237.887 69.1425 237.942 69.0868 237.942 69.0189C237.941 68.9505 237.886 68.8957 237.818 68.896C237.816 68.896 237.816 68.8964 237.815 68.8964C235.914 68.9051 234.35 67.3575 234.34 65.456C234.34 65.3881 234.284 65.3335 234.216 65.3339C234.149 65.3347 234.094 65.3896 234.094 65.4576Z" fill="#FDDFB1"/>
<path d="M226.369 70.1715C224.858 71.8727 222.455 72.7231 219.156 72.7231H217.75V63.3494H218.74C220.302 63.3494 221.379 63.0547 221.968 62.4642C222.559 61.8741 222.853 61.0932 222.853 60.1207C222.853 59.1142 222.524 58.342 221.864 57.8036C221.205 57.2656 220.406 56.9962 219.469 56.9962C218.289 56.9962 217.352 57.3695 216.656 58.1161C215.962 58.863 215.363 59.8003 214.86 60.9281C214.357 62.0566 213.853 63.2803 213.35 64.5996C212.847 65.9193 212.187 67.143 211.371 68.2711C210.556 69.3996 209.488 70.337 208.168 71.0831C206.849 71.8301 205.131 72.2029 203.013 72.2029C196.521 72.2029 192.754 69.0259 191.712 62.6732H188.691V57.8822H191.712C192.06 54.411 193.11 51.8932 194.863 50.331C196.616 48.7688 199.281 47.9879 202.856 47.9879V57.0488H202.075C201.034 57.0488 200.122 57.2751 199.341 57.7258C198.561 58.1777 198.17 58.8713 198.17 59.809C198.17 60.8506 198.508 61.6146 199.185 62.1C199.862 62.5867 200.6 62.8292 201.398 62.8292C202.614 62.8292 203.568 62.4385 204.262 61.6576C204.958 60.8763 205.556 59.8959 206.059 58.7153C206.563 57.5354 207.049 56.2678 207.517 54.9138C207.986 53.5597 208.637 52.2926 209.47 51.1119C210.303 49.932 211.397 48.9509 212.751 48.17C214.105 47.389 215.911 46.9984 218.167 46.9984C221.708 46.9984 224.33 47.9183 226.03 49.7582C227.732 51.5989 228.772 54.3067 229.155 57.8822H233.842V62.6732H229.155C228.807 65.971 227.879 68.471 226.369 70.1715Z" fill="#FDDFB1"/>
<path d="M270.709 60.0738C270.709 57.6185 268.718 55.6281 266.263 55.6281C263.807 55.6281 261.817 57.6185 261.817 60.0738C261.817 62.5291 263.807 64.5195 266.263 64.5195C268.718 64.5195 270.709 62.5291 270.709 60.0738Z" fill="#E6E6E6"/>
<path d="M155.188 67.8198C154.701 67.8198 154.306 67.4248 154.306 66.9378V53.2092C154.306 52.7222 154.701 52.3271 155.188 52.3271C155.675 52.3271 156.07 52.7222 156.07 53.2092V66.9378C156.07 67.4252 155.675 67.8198 155.188 67.8198Z" fill="#666666"/>
<path opacity="0.1" d="M162.826 45.142V87.6665L258.533 87.6665V75.0056L162.826 45.142Z" fill="#F2F2F2"/>
<path d="M241.363 88.6165C240.9 89.0798 240.519 89.5929 240.203 90.1333H260.935L261.409 89.6585C264.321 86.7466 264.321 82.0259 261.409 79.1144C258.498 76.2028 253.777 76.2028 250.865 79.1144L241.363 88.6165Z" fill="#F2F2F2"/>
<path d="M218.561 88.6165C218.098 89.0798 217.716 89.5929 217.401 90.1333H238.133L238.608 89.6585C241.519 86.7466 241.519 82.0259 238.608 79.1144C235.696 76.2028 230.975 76.2028 228.064 79.1144L218.561 88.6165Z" fill="#F2F2F2"/>
<path d="M195.754 88.6165C195.291 89.0798 194.91 89.5929 194.594 90.1333H215.326L215.801 89.6585C218.713 86.7466 218.713 82.0259 215.801 79.1144C212.89 76.2028 208.169 76.2028 205.257 79.1144L195.754 88.6165Z" fill="#F2F2F2"/>
<path d="M259.761 80.7628C262.673 83.6747 262.673 88.3954 259.761 91.3069L250.259 100.809C247.347 103.721 242.626 103.721 239.715 100.809C236.803 97.8975 236.803 93.1764 239.715 90.2649L249.217 80.7628C252.128 77.8512 256.849 77.8512 259.761 80.7628Z" fill="#FDDBBB"/>
<path d="M236.957 80.7628C239.868 83.6747 239.868 88.3954 236.957 91.3069L227.455 100.809C224.543 103.721 219.822 103.721 216.911 100.809C213.999 97.8975 213.999 93.1764 216.911 90.2649L226.413 80.7628C229.324 77.8512 234.045 77.8512 236.957 80.7628Z" fill="#FDDBBB"/>
<path d="M214.152 80.7628C217.064 83.6747 217.064 88.3954 214.152 91.3069L204.65 100.809C201.739 103.721 197.018 103.721 194.106 100.809C191.195 97.8975 191.195 93.1764 194.106 90.2649L203.608 80.7628C206.52 77.8512 211.241 77.8512 214.152 80.7628Z" fill="#FDDBBB"/>
<path d="M294.702 20.4751V70.5884H302.411V20.4751H294.702Z" fill="#F2F2F2"/>
<path d="M302.412 17.6727V73.3906H334.634V17.6727H302.412Z" fill="#333333"/>
<path d="M312.637 61.2568C310.408 60.7333 308.177 62.1155 307.654 64.3441C307.13 66.5727 308.512 68.8038 310.741 69.3274C312.97 69.851 315.201 68.4687 315.724 66.2401C316.248 64.0115 314.866 61.7804 312.637 61.2568Z" fill="#666666"/>
<path d="M265.338 28.3662L207.407 28.3662C209.179 29.4121 211.243 30.0145 213.45 30.0145L260.04 30.0145H263.69C269.381 30.0145 273.994 34.6277 273.994 40.3181V77.0752L275.642 75.4268V38.6697C275.642 32.979 271.029 28.3662 265.338 28.3662Z" fill="#F2F2F2"/>
<path d="M99.7988 131.871L110.343 121.327L125.117 136.101C128.029 139.012 128.029 143.733 125.117 146.645C122.206 149.557 117.484 149.557 114.573 146.645L99.7988 131.871Z" fill="#FDDBBB"/>
<path d="M116.09 147.805V127.073L110.343 121.326L99.7988 131.87L114.573 146.644C115.036 147.109 115.549 147.49 116.09 147.805Z" fill="#F2F2F2"/>
<path d="M114.441 52.7132V158.734C114.441 164.424 109.828 169.038 104.138 169.038H64.6256C58.9352 169.038 54.322 164.424 54.322 158.734V52.7132C54.322 47.0229 58.9352 42.4097 64.6256 42.4097H104.138C109.829 42.4097 114.441 47.0229 114.441 52.7132Z" fill="#F2F2F2"/>
<path d="M42.4191 114.857C48.9931 114.857 54.3224 109.527 54.3224 102.953V56.3626V52.7128C54.3224 47.0225 58.9352 42.4093 64.626 42.4093H101.383L93.4669 34.4931V21.7002H46.2127V34.9548C42.1714 37.6021 39.5 42.1679 39.5 47.3598V114.856H42.4191V114.857Z" fill="#FDDBBB"/>
<path d="M56.7895 57.8705L56.7892 153.577L111.975 153.577L111.975 57.8706L56.7895 57.8705Z" fill="#666666"/>
<path d="M111.218 58.5991H57.546V152.848H111.218V58.5991Z" fill="#3DA755"/>
<path d="M77.3932 81.7935C73.7935 81.8129 70.833 78.8835 70.8137 75.2843C70.8129 75.1559 70.7082 75.0524 70.5798 75.0532C70.4514 75.054 70.3479 75.1587 70.3487 75.2867C70.3681 78.8851 67.4404 81.8453 63.8419 81.8662C63.8411 81.8662 63.8403 81.8658 63.8391 81.8658C63.7104 81.8666 63.6065 81.9713 63.6073 82.1C63.6081 82.2288 63.7127 82.3323 63.8415 82.3319C63.8427 82.3319 63.8435 82.3315 63.8443 82.3315C67.4408 82.3137 70.3985 85.2395 70.421 88.8356C70.421 88.8375 70.4198 88.8391 70.4198 88.8407C70.4206 88.9695 70.5257 89.0738 70.6545 89.073C70.7836 89.0722 70.8875 88.9671 70.8867 88.8383C70.8867 88.8364 70.8855 88.8348 70.8855 88.8332C70.869 85.2363 73.7971 82.2782 77.3947 82.2588C77.5231 82.258 77.6266 82.1534 77.6258 82.0254C77.6258 81.8966 77.5211 81.7931 77.3932 81.7935Z" fill="#A9DEB4"/>
<path d="M103.03 88.4068C100.657 88.4195 98.7058 86.4887 98.6931 84.1163C98.6928 84.0318 98.6236 83.9635 98.5391 83.9639C98.4546 83.9643 98.3862 84.0334 98.3866 84.1179C98.3993 86.4899 96.4697 88.4408 94.0981 88.4546C94.0973 88.4546 94.0965 88.4542 94.0965 88.4542C94.0116 88.4546 93.9433 88.5237 93.9437 88.6087C93.9441 88.6936 94.0132 88.7619 94.0981 88.7615C94.0989 88.7615 94.0993 88.7611 94.1001 88.7611C96.4705 88.7493 98.4202 90.6777 98.4348 93.0481C98.4348 93.0493 98.4344 93.0504 98.434 93.0516C98.4344 93.1366 98.5039 93.2053 98.5889 93.2049C98.6738 93.2045 98.7425 93.1354 98.7421 93.05C98.7421 93.0489 98.7413 93.0481 98.7413 93.0465C98.7307 90.6757 100.66 88.726 103.032 88.7133C103.116 88.7129 103.185 88.6438 103.184 88.5593C103.184 88.4748 103.114 88.4064 103.03 88.4068Z" fill="#A9DEB4"/>
<path d="M79.0379 129.367C77.1352 129.377 75.5702 127.828 75.5604 125.926C75.56 125.858 75.5047 125.803 75.4371 125.804C75.3692 125.804 75.3147 125.859 75.3151 125.927C75.3253 127.829 73.7777 129.394 71.8758 129.405C71.8758 129.405 71.875 129.405 71.8742 129.405C71.8063 129.405 71.7514 129.46 71.7518 129.528C71.7522 129.596 71.8075 129.651 71.8754 129.651C71.8754 129.651 71.8762 129.65 71.877 129.65C73.7781 129.641 75.3415 131.187 75.3534 133.088C75.3534 133.089 75.353 133.09 75.353 133.091C75.3534 133.159 75.4091 133.214 75.477 133.214C75.545 133.214 75.6003 133.158 75.5999 133.09C75.5999 133.089 75.5995 133.088 75.5995 133.087C75.5908 131.186 77.1384 129.622 79.0399 129.612C79.1079 129.612 79.1624 129.557 79.162 129.489C79.1612 129.421 79.1059 129.366 79.0379 129.367Z" fill="#A9DEB4"/>
<path d="M94.4797 90.0339C96.1809 91.5444 97.0314 93.9476 97.0314 97.2466V98.6528H87.6576V97.6634C87.6576 96.1007 87.363 95.0244 86.7724 94.4346C86.1823 93.8437 85.401 93.5491 84.4289 93.5491C83.4224 93.5491 82.6502 93.8785 82.1118 94.5385C81.5738 95.1974 81.3045 95.9969 81.3045 96.9338C81.3045 98.1137 81.6777 99.051 82.4243 99.7462C83.1712 100.44 84.1086 101.039 85.2363 101.543C86.3648 102.046 87.5885 102.549 88.9078 103.053C90.2275 103.556 91.4512 104.216 92.5793 105.032C93.7078 105.847 94.6452 106.915 95.3913 108.234C96.1383 109.554 96.5112 111.272 96.5112 113.39C96.5112 119.881 93.3342 123.649 86.9814 124.69V127.711H82.19V124.69C78.7188 124.343 76.2011 123.293 74.6388 121.54C73.0766 119.787 72.2957 117.121 72.2957 113.546H81.3566V114.327C81.3566 115.369 81.5829 116.28 82.0336 117.061C82.4855 117.842 83.1791 118.233 84.1169 118.233C85.1585 118.233 85.9224 117.894 86.4079 117.217C86.8945 116.54 87.137 115.803 87.137 115.004C87.137 113.788 86.7464 112.834 85.9655 112.14C85.1841 111.445 84.2038 110.846 83.0231 110.343C81.8432 109.839 80.5757 109.353 79.2216 108.885C77.8676 108.416 76.6004 107.765 75.4197 106.932C74.2399 106.099 73.2587 105.005 72.4778 103.651C71.6969 102.298 71.3062 100.492 71.3062 98.2353C71.3062 94.6941 72.2266 92.0721 74.0661 90.3717C75.9068 88.6704 78.6145 87.63 82.19 87.2472V82.5605H86.9814V87.2472C90.2793 87.5956 92.7792 88.5243 94.4797 90.0339Z" fill="#A9DEB4"/>
<path d="M84.3819 54.5858C86.8372 54.5858 88.8276 52.5954 88.8276 50.1401C88.8276 47.6848 86.8372 45.6943 84.3819 45.6943C81.9266 45.6943 79.9362 47.6848 79.9362 50.1401C79.9362 52.5954 81.9266 54.5858 84.3819 54.5858Z" fill="#E6E6E6"/>
<path d="M92.1279 161.215C92.1279 161.702 91.7329 162.097 91.2458 162.097H77.5172C77.0302 162.097 76.6352 161.702 76.6352 161.215C76.6352 160.728 77.0302 160.333 77.5172 160.333H91.2458C91.7333 160.333 92.1279 160.728 92.1279 161.215Z" fill="#666666"/>
<path opacity="0.1" d="M69.4501 153.577H111.975V57.8706H99.3137L69.4501 153.577Z" fill="#F2F2F2"/>
<path d="M112.925 75.04C113.388 75.5033 113.901 75.8849 114.442 76.2005V55.4685L113.967 54.9937C111.055 52.0822 106.334 52.0822 103.423 54.9937C100.511 57.9053 100.511 62.6263 103.423 65.5378L112.925 75.04Z" fill="#F2F2F2"/>
<path d="M112.925 97.8419C113.388 98.3052 113.901 98.6864 114.441 99.0024V78.2704L113.967 77.7956C111.055 74.8841 106.334 74.8837 103.422 77.7956C100.511 80.7072 100.511 85.4282 103.422 88.3398L112.925 97.8419Z" fill="#F2F2F2"/>
<path d="M112.925 120.648C113.388 121.112 113.901 121.493 114.441 121.809V101.077L113.967 100.602C111.055 97.6902 106.334 97.6898 103.422 100.602C100.511 103.513 100.511 108.234 103.422 111.146L112.925 120.648Z" fill="#F2F2F2"/>
<path d="M105.071 56.6422C107.982 53.7306 112.703 53.7306 115.615 56.6422L125.117 66.1443C128.029 69.0558 128.029 73.7769 125.117 76.6884C122.206 79.6 117.484 79.6 114.573 76.6884L105.071 67.1863C102.159 64.2743 102.159 59.5537 105.071 56.6422Z" fill="#FDDBBB"/>
<path d="M105.071 79.4464C107.982 76.5348 112.703 76.5348 115.615 79.4464L125.117 88.9485C128.029 91.86 128.029 96.5811 125.117 99.4926C122.206 102.404 117.484 102.404 114.573 99.4926L105.071 89.9905C102.159 87.0789 102.159 82.3579 105.071 79.4464Z" fill="#FDDBBB"/>
<path d="M105.071 102.25C107.982 99.3384 112.703 99.3384 115.615 102.25L125.117 111.752C128.029 114.664 128.029 119.385 125.117 122.297C122.206 125.208 117.484 125.208 114.573 122.297L105.071 112.794C102.159 109.883 102.159 105.162 105.071 102.25Z" fill="#FDDBBB"/>
<path d="M44.783 21.7012L94.8962 21.7012V13.992L44.783 13.992V21.7012Z" fill="#F2F2F2"/>
<path d="M41.9809 13.9917L97.6988 13.9917V-18.2308L41.9809 -18.2308L41.9809 13.9917Z" fill="#6C0716"/>
<path d="M91.1244 8.55843C93.253 7.71575 94.2954 5.30706 93.4527 3.17847C92.61 1.04989 90.2014 0.00746536 88.0728 0.850154C85.9442 1.69284 84.9018 4.10153 85.7445 6.23012C86.5871 8.3587 88.9958 9.40112 91.1244 8.55843Z" fill="#666666"/>
<path d="M52.6741 51.0648V108.996C53.72 107.224 54.3224 105.16 54.3224 102.954V56.3629V52.7131C54.3224 47.0228 58.9352 42.4096 64.626 42.4096H101.383L99.7348 40.7612H62.9776C57.2869 40.7612 52.6741 45.374 52.6741 51.0648Z" fill="#F2F2F2"/>
<path d="M133.39 225.761L122.846 215.217L137.62 200.443C140.532 197.531 145.253 197.531 148.165 200.443C151.076 203.354 151.076 208.076 148.165 210.987L133.39 225.761Z" fill="#FDDBBB"/>
<path d="M149.325 209.47H128.593L122.846 215.217L133.39 225.761L148.164 210.987C148.628 210.524 149.009 210.011 149.325 209.47Z" fill="#F2F2F2"/>
<path d="M54.2327 211.119H160.253C165.944 211.119 170.557 215.732 170.557 221.422V260.935C170.557 266.625 165.944 271.238 160.253 271.238H54.2327C48.5423 271.238 43.9291 266.625 43.9291 260.935V221.422C43.9291 215.732 48.5423 211.119 54.2327 211.119Z" fill="#F2F2F2"/>
<path d="M116.376 283.141C116.376 276.567 111.047 271.238 104.473 271.238H57.8821H54.2323C48.5419 271.238 43.9287 266.625 43.9287 260.934V224.177L36.0125 232.093H23.2197L23.2197 279.347H36.4743C39.1216 283.389 43.6874 286.06 48.8793 286.06H116.376V283.141H116.376Z" fill="#FDDBBB"/>
<path d="M59.39 268.771L155.096 268.771L155.096 213.586L59.39 213.585L59.39 268.771Z" fill="#666666"/>
<path d="M60.1186 214.342V268.014H154.368V214.342H60.1186Z" fill="#FBB03B"/>
<path d="M83.313 248.167C83.3323 251.766 80.403 254.727 76.8038 254.746C76.6754 254.747 76.5719 254.852 76.5727 254.98C76.5735 255.108 76.6782 255.212 76.8061 255.211C80.4046 255.192 83.3647 258.12 83.3857 261.718C83.3857 261.719 83.3853 261.72 83.3853 261.721C83.3861 261.85 83.4907 261.953 83.6195 261.953C83.7483 261.952 83.8518 261.847 83.8514 261.718C83.8514 261.717 83.851 261.716 83.851 261.716C83.8332 258.119 86.759 255.161 90.355 255.139C90.357 255.139 90.3586 255.14 90.3602 255.14C90.4889 255.139 90.5932 255.034 90.5924 254.905C90.5916 254.776 90.4866 254.672 90.3578 254.673C90.3558 254.673 90.3543 254.674 90.3527 254.674C86.7558 254.691 83.7976 251.763 83.7783 248.165C83.7775 248.037 83.6728 247.933 83.5448 247.934C83.4161 247.934 83.3126 248.039 83.313 248.167Z" fill="#FDDFB1"/>
<path d="M89.9261 222.53C89.9387 224.902 88.008 226.854 85.6356 226.867C85.5511 226.867 85.4827 226.936 85.4831 227.021C85.4835 227.105 85.5526 227.174 85.6372 227.173C88.0091 227.161 89.9601 229.09 89.9739 231.462C89.9739 231.463 89.9735 231.463 89.9735 231.463C89.9739 231.548 90.043 231.617 90.1279 231.616C90.2129 231.616 90.2812 231.547 90.2808 231.462C90.2808 231.461 90.2804 231.461 90.2804 231.46C90.2685 229.089 92.1969 227.14 94.5673 227.125C94.5685 227.125 94.5697 227.125 94.5709 227.126C94.6558 227.125 94.7245 227.056 94.7241 226.971C94.7238 226.886 94.6546 226.817 94.5693 226.818C94.5681 226.818 94.5673 226.819 94.5658 226.819C92.195 226.829 90.2452 224.9 90.2326 222.528C90.2322 222.444 90.1631 222.375 90.0786 222.376C89.994 222.376 89.9257 222.445 89.9261 222.53Z" fill="#FDDFB1"/>
<path d="M130.886 246.522C130.896 248.425 129.348 249.99 127.445 250C127.377 250 127.323 250.055 127.323 250.123C127.323 250.191 127.379 250.245 127.447 250.245C129.349 250.235 130.913 251.782 130.924 253.684C130.924 253.684 130.924 253.685 130.924 253.686C130.924 253.754 130.98 253.808 131.048 253.808C131.115 253.808 131.17 253.752 131.17 253.684C131.17 253.684 131.17 253.684 131.17 253.683C131.16 251.782 132.707 250.218 134.608 250.206C134.608 250.206 134.61 250.207 134.61 250.207C134.679 250.206 134.734 250.151 134.733 250.083C134.733 250.015 134.677 249.96 134.609 249.96C134.608 249.96 134.607 249.96 134.607 249.96C132.705 249.969 131.142 248.421 131.132 246.52C131.131 246.452 131.076 246.398 131.008 246.398C130.94 246.399 130.886 246.454 130.886 246.522Z" fill="#FDDFB1"/>
<path d="M91.5535 231.08C93.064 229.379 95.4671 228.529 98.7662 228.529H100.172V237.902H99.1829C97.6203 237.902 96.5439 238.197 95.9542 238.788C95.3633 239.378 95.0686 240.159 95.0686 241.131C95.0686 242.138 95.398 242.91 96.0581 243.448C96.7169 243.986 97.5164 244.256 98.4533 244.256C99.6332 244.256 100.571 243.882 101.266 243.136C101.96 242.389 102.559 241.452 103.062 240.324C103.565 239.195 104.069 237.972 104.572 236.652C105.075 235.333 105.735 234.109 106.551 232.981C107.367 231.852 108.434 230.915 109.754 230.169C111.073 229.422 112.791 229.049 114.909 229.049C121.401 229.049 125.168 232.226 126.21 238.579H129.231V243.37H126.21C125.863 246.841 124.812 249.359 123.059 250.921C121.306 252.484 118.641 253.264 115.066 253.264V244.204H115.847C116.888 244.204 117.8 243.977 118.581 243.526C119.362 243.075 119.753 242.381 119.753 241.443C119.753 240.402 119.414 239.638 118.737 239.152C118.06 238.666 117.322 238.423 116.523 238.423C115.308 238.423 114.353 238.814 113.659 239.595C112.964 240.376 112.365 241.356 111.863 242.537C111.359 243.717 110.873 244.984 110.404 246.339C109.936 247.693 109.285 248.96 108.452 250.14C107.619 251.32 106.525 252.301 105.171 253.082C103.817 253.863 102.011 254.254 99.7549 254.254C96.2137 254.254 93.5917 253.334 91.8912 251.494C90.1899 249.653 89.1495 246.946 88.7667 243.37H84.0801V238.579H88.7667C89.1151 235.281 90.0438 232.781 91.5535 231.08Z" fill="#FDDFB1"/>
<path d="M56.1054 241.178C56.1054 238.723 54.115 236.733 51.6596 236.733C49.2043 236.733 47.2139 238.723 47.2139 241.178C47.2139 243.634 49.2043 245.624 51.6596 245.624C54.115 245.624 56.1054 243.634 56.1054 241.178Z" fill="#E6E6E6"/>
<path d="M162.734 233.432C163.221 233.432 163.616 233.827 163.616 234.314V248.043C163.616 248.53 163.221 248.925 162.734 248.925C162.247 248.925 161.852 248.53 161.852 248.043V234.314C161.852 233.827 162.247 233.432 162.734 233.432Z" fill="#666666"/>
<path opacity="0.1" d="M155.096 256.11V213.585H59.3902V226.246L155.096 256.11Z" fill="#F2F2F2"/>
<path d="M76.5593 212.636C77.0226 212.172 77.4042 211.659 77.7198 211.119H56.9878L56.513 211.593C53.6015 214.505 53.6015 219.226 56.513 222.138C59.4246 225.049 64.1456 225.049 67.0572 222.138L76.5593 212.636Z" fill="#F2F2F2"/>
<path d="M99.361 212.636C99.8244 212.172 100.206 211.659 100.522 211.119H79.7896L79.3148 211.593C76.4032 214.505 76.4028 219.226 79.3148 222.138C82.2263 225.049 86.9474 225.049 89.8589 222.138L99.361 212.636Z" fill="#F2F2F2"/>
<path d="M122.168 212.636C122.631 212.172 123.012 211.659 123.328 211.119H102.596L102.121 211.594C99.2098 214.505 99.2094 219.226 102.121 222.138C105.033 225.05 109.754 225.05 112.665 222.138L122.168 212.636Z" fill="#F2F2F2"/>
<path d="M58.1617 220.489C55.2502 217.578 55.2502 212.857 58.1617 209.945L67.6639 200.443C70.5754 197.531 75.2965 197.531 78.208 200.443C81.1195 203.354 81.1195 208.076 78.208 210.987L68.7059 220.489C65.7939 223.401 61.0733 223.401 58.1617 220.489Z" fill="#FDDBBB"/>
<path d="M80.9659 220.489C78.0543 217.578 78.0543 212.857 80.9659 209.945L90.468 200.443C93.3795 197.531 98.1006 197.531 101.012 200.443C103.924 203.354 103.924 208.076 101.012 210.987L91.51 220.489C88.5985 223.401 83.8774 223.401 80.9659 220.489Z" fill="#FDDBBB"/>
<path d="M103.77 220.489C100.858 217.578 100.858 212.857 103.77 209.945L113.272 200.443C116.184 197.531 120.905 197.531 123.816 200.443C126.728 203.354 126.728 208.076 123.816 210.987L114.314 220.489C111.403 223.401 106.682 223.401 103.77 220.489Z" fill="#FDDBBB"/>
<path d="M23.2204 280.777L23.2204 230.664H15.5112L15.5112 280.777H23.2204Z" fill="#F2F2F2"/>
<path d="M15.5109 283.579L15.5109 227.861H-16.7116L-16.7116 283.579H15.5109Z" fill="#333333"/>
<path d="M10.0777 234.436C9.23503 232.307 6.82634 231.265 4.69776 232.107C2.56918 232.95 1.52675 235.359 2.36944 237.487C3.21213 239.616 5.62082 240.658 7.74941 239.815C9.87799 238.973 10.9204 236.564 10.0777 234.436Z" fill="#666666"/>
<path d="M52.5844 272.886H110.515C108.744 271.84 106.68 271.238 104.473 271.238H57.8825H54.2327C48.5423 271.238 43.9291 266.625 43.9291 260.934V224.177L42.2808 225.826V262.583C42.2808 268.273 46.8936 272.886 52.5844 272.886Z" fill="#F2F2F2"/>
<path d="M168.17 120.814C174.847 122.553 180.97 126.066 185.877 130.972C187.96 133.056 189.799 135.369 191.354 137.848L191.809 135.455L192.384 135.565L191.728 139.019L188.331 138.113L188.481 137.547L190.875 138.186C189.339 135.733 187.523 133.446 185.463 131.386C180.63 126.553 174.599 123.094 168.022 121.381C161.638 119.719 154.89 119.726 148.509 121.401L148.36 120.835C154.839 119.134 161.689 119.127 168.17 120.814Z" fill="#F2F2F2"/>
<path d="M165.523 195.038L167.668 196.28C164.848 196.928 161.946 197.26 159.033 197.26C152.198 197.26 145.487 195.442 139.625 192.002C133.935 188.664 129.169 183.888 125.842 178.19L125.337 178.486C128.714 184.27 133.553 189.118 139.329 192.507C145.28 196 152.094 197.845 159.033 197.845C161.98 197.845 164.915 197.51 167.768 196.857L166.397 198.87L166.882 199.199L168.86 196.293L165.817 194.531L165.523 195.038Z" fill="#F2F2F2"/>
</g>
<defs>
<clipPath id="clip0_1404_8689">
<rect width="316" height="316" fill="white"/>
</clipPath>
</defs>
</svg>
