<svg width="135" height="278" viewBox="0 0 135 278" fill="none" xmlns="http://www.w3.org/2000/svg">
<g clip-path="url(#clip0_141_1190)">
<path d="M112.997 278H22.0027C10.1461 278 0.5 268.346 0.5 256.479V21.5213C0.5 9.65432 10.1461 0 22.0027 0H112.997C124.854 0 134.5 9.65432 134.5 21.5213V256.479C134.5 268.346 124.854 278 112.997 278Z" fill="#2F2E41"/>
<path d="M113.09 272.192H21.91C13.0135 272.192 5.77563 264.948 5.77563 256.043V20.6363C5.77563 11.7323 13.0135 4.48804 21.91 4.48804H113.09C121.986 4.48804 129.224 11.7323 129.224 20.6363V256.043C129.224 264.947 121.986 272.192 113.09 272.192Z" fill="white"/>
<path d="M81.744 19.8006H52.7283C49.383 19.8006 46.6614 17.0767 46.6614 13.7284C46.6614 10.3801 49.383 7.65625 52.7283 7.65625H81.744C85.0895 7.65625 87.811 10.3801 87.811 13.7284C87.811 17.0767 85.0895 19.8006 81.744 19.8006Z" fill="#2F2E41"/>
<path d="M26.4082 65.7434H57.6986" stroke="#090814" stroke-width="2" stroke-miterlimit="10"/>
<path d="M26.4082 77.6133H92.2293" stroke="#090814" stroke-width="2" stroke-miterlimit="10"/>
<path d="M26.4082 72.272H120.693" stroke="#090814" stroke-width="2" stroke-miterlimit="10"/>
<path d="M19.2924 74.0523C22.2399 74.0523 24.6293 71.6609 24.6293 68.7108C24.6293 65.7608 22.2399 63.3694 19.2924 63.3694C16.345 63.3694 13.9556 65.7608 13.9556 68.7108C13.9556 71.6609 16.345 74.0523 19.2924 74.0523Z" fill="#E59339"/>
<path d="M26.4082 136.025H57.6986" stroke="#090814" stroke-width="2" stroke-miterlimit="10"/>
<path d="M26.4082 147.895H92.2293" stroke="#090814" stroke-width="2" stroke-miterlimit="10"/>
<path d="M26.4082 142.553H120.693" stroke="#090814" stroke-width="2" stroke-miterlimit="10"/>
<path d="M19.2924 144.334C22.2399 144.334 24.6293 141.942 24.6293 138.992C24.6293 136.042 22.2399 133.651 19.2924 133.651C16.345 133.651 13.9556 136.042 13.9556 138.992C13.9556 141.942 16.345 144.334 19.2924 144.334Z" fill="#E59339"/>
<path d="M67.5 129.795C78.1448 129.795 86.774 121.14 86.774 110.463C86.774 99.7872 78.1448 91.1323 67.5 91.1323C56.8553 91.1323 48.2261 99.7872 48.2261 110.463C48.2261 121.14 56.8553 129.795 67.5 129.795Z" fill="#8D35AA"/>
<path d="M67.5001 101.809C68.8616 101.809 69.9654 102.916 69.9654 104.282V109.227H65.0348V104.282C65.0348 102.916 66.1386 101.809 67.5001 101.809ZM71.198 109.227V104.282C71.198 102.233 69.5424 100.573 67.5001 100.573C65.4578 100.573 63.8022 102.233 63.8022 104.282V109.227C62.4407 109.227 61.3369 110.334 61.3369 111.699V117.881C61.3369 119.246 62.4407 120.353 63.8022 120.353H71.198C72.5596 120.353 73.6633 119.246 73.6633 117.881V111.699C73.6633 110.334 72.5596 109.227 71.198 109.227ZM63.8022 110.463H71.198C71.8788 110.463 72.4307 111.017 72.4307 111.699V117.881C72.4307 118.564 71.8788 119.117 71.198 119.117H63.8022C63.1214 119.117 62.5696 118.564 62.5696 117.881V111.699C62.5696 111.017 63.1214 110.463 63.8022 110.463Z" fill="white"/>
</g>
<defs>
<clipPath id="clip0_141_1190">
<rect width="134" height="278" fill="white" transform="translate(0.5)"/>
</clipPath>
</defs>
</svg>
