<svg width="198" height="178" viewBox="0 0 198 178" fill="none" xmlns="http://www.w3.org/2000/svg">
<path fill-rule="evenodd" clip-rule="evenodd" d="M139.777 2.80219C143.961 -1.8547 151.631 -0.11846 153.401 5.88627L199.36 161.761C200.89 166.95 196.935 172.13 191.525 172.022L113.261 170.448C109.73 170.377 106.663 167.999 105.715 164.596L96.2413 130.577C94.5215 124.402 86.6009 122.656 82.4444 127.536L49.4857 166.229C47.9292 168.057 45.6345 169.088 43.2347 169.04L8.82617 168.348C1.98063 168.211 -1.53994 160.097 3.03596 155.004L139.777 2.80219Z" fill="#7E249A"/>
<path fill-rule="evenodd" clip-rule="evenodd" d="M221.318 172.054C226.728 171.965 230.491 166.644 228.772 161.514L188.38 40.9355C186.392 34.9995 178.663 33.5444 174.652 38.351L72.0719 161.277C67.6851 166.533 71.4995 174.514 78.3455 174.401L221.318 172.054Z" fill="#8D35AA"/>
</svg>
