<svg width="50" height="50" viewBox="0 0 50 50" fill="none" xmlns="http://www.w3.org/2000/svg">
<path d="M25 2C37.6454 2 48 12.3546 48 25C48 37.6454 37.6454 48 25 48C12.3546 48 2 37.6454 2 25C2 12.3546 12.3546 2 25 2ZM19.1953 30.1748C15.5742 31.3064 12.1147 33.3577 9.54199 36.3838C7.78533 38.2414 8.5212 40.7243 9.83594 42.0391L9.87988 42.083L9.92676 42.125C13.8135 45.5544 19.278 47.833 25 47.833C30.722 47.833 36.1865 45.5544 40.0732 42.125L40.0723 42.124C40.9463 41.3946 41.4985 40.3897 41.5547 39.2666C41.61 38.1607 41.1748 37.135 40.4424 36.3672C37.8939 33.3746 34.6518 31.306 30.7725 30.165L30.0176 29.9424L29.3135 30.2949C27.9098 30.9967 26.5481 31.333 25 31.333C23.4519 31.333 22.0902 30.9967 20.6865 30.2949L19.9648 29.9336L19.1953 30.1748ZM25 6.33301C18.93 6.33301 14.667 12.2376 14.667 18.75C14.667 25.2624 18.93 31.167 25 31.167C31.07 31.167 35.333 25.2624 35.333 18.75C35.333 12.2376 31.07 6.33301 25 6.33301Z" stroke="#8D35AA" stroke-width="4"/>
</svg>
