<svg width="22" height="20" viewBox="0 0 22 20" fill="none" xmlns="http://www.w3.org/2000/svg">
<path d="M18.5625 7.03125H13.75V2.875C13.75 2.40258 13.5327 1.94952 13.1459 1.61547C12.7591 1.28142 12.2345 1.09375 11.6875 1.09375H3.4375C2.89049 1.09375 2.36589 1.28142 1.97909 1.61547C1.5923 1.94952 1.375 2.40258 1.375 2.875V18.3125C1.375 18.47 1.44743 18.621 1.57636 18.7323C1.7053 18.8437 1.88016 18.9062 2.0625 18.9062H6.53125C6.62242 18.9062 6.70985 18.875 6.77432 18.8193C6.83878 18.7636 6.875 18.6881 6.875 18.6094V15.9542C6.875 15.6347 7.15945 15.3604 7.52941 15.3445C7.62237 15.3406 7.71527 15.3531 7.80248 15.3812C7.88969 15.4092 7.9694 15.4523 8.03677 15.5077C8.10415 15.5632 8.15778 15.6298 8.19444 15.7037C8.23109 15.7776 8.24999 15.8571 8.25 15.9375V18.6094C8.25 18.6881 8.28622 18.7636 8.35068 18.8193C8.41515 18.875 8.50258 18.9062 8.59375 18.9062H19.9375C20.1198 18.9062 20.2947 18.8437 20.4236 18.7323C20.5526 18.621 20.625 18.47 20.625 18.3125V8.8125C20.625 8.34008 20.4077 7.88701 20.0209 7.55297C19.6341 7.21892 19.1095 7.03125 18.5625 7.03125ZM4.21438 16.5264C4.07199 16.5425 3.92735 16.5197 3.80075 16.4612C3.67415 16.4026 3.57195 16.3113 3.50849 16.2001C3.44503 16.0888 3.4235 15.9632 3.44693 15.8408C3.47035 15.7185 3.53754 15.6055 3.63908 15.5178C3.74062 15.4302 3.87141 15.3721 4.01308 15.3519C4.15476 15.3317 4.30021 15.3503 4.42903 15.4051C4.55785 15.4599 4.66356 15.5481 4.73133 15.6575C4.79911 15.7668 4.82554 15.8917 4.80691 16.0147C4.78726 16.1445 4.71851 16.265 4.61136 16.3575C4.5042 16.4501 4.36464 16.5095 4.21438 16.5264ZM4.21438 13.5577C4.07199 13.5738 3.92735 13.5509 3.80075 13.4924C3.67415 13.4339 3.57195 13.3426 3.50849 13.2313C3.44503 13.1201 3.4235 12.9945 3.44693 12.8721C3.47035 12.7497 3.53754 12.6368 3.63908 12.5491C3.74062 12.4614 3.87141 12.4034 4.01308 12.3831C4.15476 12.3629 4.30021 12.3815 4.42903 12.4363C4.55785 12.4911 4.66356 12.5794 4.73133 12.6887C4.79911 12.798 4.82554 12.923 4.80691 13.0459C4.78726 13.1757 4.71851 13.2962 4.61136 13.3888C4.5042 13.4813 4.36464 13.5407 4.21438 13.5577ZM4.21438 10.5889C4.07199 10.605 3.92735 10.5822 3.80075 10.5237C3.67415 10.4651 3.57195 10.3738 3.50849 10.2626C3.44503 10.1513 3.4235 10.0257 3.44693 9.90335C3.47035 9.78099 3.53754 9.66804 3.63908 9.58035C3.74062 9.49265 3.87141 9.43462 4.01308 9.41439C4.15476 9.39416 4.30021 9.41276 4.42903 9.46756C4.55785 9.52236 4.66356 9.61063 4.73133 9.71996C4.79911 9.8293 4.82554 9.95422 4.80691 10.0772C4.78726 10.207 4.71851 10.3275 4.61136 10.42C4.5042 10.5126 4.36464 10.572 4.21438 10.5889ZM4.21438 7.62018C4.07199 7.63626 3.92735 7.61343 3.80075 7.5549C3.67415 7.49637 3.57195 7.40507 3.50849 7.29382C3.44503 7.18257 3.4235 7.05695 3.44693 6.9346C3.47035 6.81224 3.53754 6.69929 3.63908 6.6116C3.74062 6.5239 3.87141 6.46587 4.01308 6.44564C4.15476 6.42541 4.30021 6.44401 4.42903 6.49881C4.55785 6.55361 4.66356 6.64188 4.73133 6.75121C4.79911 6.86055 4.82554 6.98547 4.80691 7.10844C4.78726 7.23821 4.71851 7.35874 4.61136 7.45128C4.5042 7.54383 4.36464 7.6032 4.21438 7.62018ZM4.21438 4.65143C4.07199 4.66751 3.92735 4.64468 3.80075 4.58615C3.67415 4.52762 3.57195 4.43632 3.50849 4.32507C3.44503 4.21382 3.4235 4.0882 3.44693 3.96585C3.47035 3.84349 3.53754 3.73054 3.63908 3.64284C3.74062 3.55515 3.87141 3.49712 4.01308 3.47689C4.15476 3.45666 4.30021 3.47526 4.42903 3.53006C4.55785 3.58486 4.66356 3.67313 4.73133 3.78246C4.79911 3.8918 4.82554 4.01672 4.80691 4.13969C4.78726 4.26946 4.71851 4.38999 4.61136 4.48253C4.5042 4.57508 4.36464 4.63445 4.21438 4.65143ZM7.65188 13.5577C7.50949 13.5738 7.36485 13.5509 7.23825 13.4924C7.11165 13.4339 7.00945 13.3426 6.94599 13.2313C6.88253 13.1201 6.861 12.9945 6.88443 12.8721C6.90785 12.7497 6.97504 12.6368 7.07658 12.5491C7.17812 12.4614 7.30891 12.4034 7.45058 12.3831C7.59226 12.3629 7.73771 12.3815 7.86653 12.4363C7.99535 12.4911 8.10106 12.5794 8.16883 12.6887C8.23661 12.798 8.26304 12.923 8.24441 13.0459C8.22476 13.1757 8.15601 13.2962 8.04886 13.3888C7.9417 13.4813 7.80214 13.5407 7.65188 13.5577ZM7.65188 10.5889C7.50949 10.605 7.36485 10.5822 7.23825 10.5237C7.11165 10.4651 7.00945 10.3738 6.94599 10.2626C6.88253 10.1513 6.861 10.0257 6.88443 9.90335C6.90785 9.78099 6.97504 9.66804 7.07658 9.58035C7.17812 9.49265 7.30891 9.43462 7.45058 9.41439C7.59226 9.39416 7.73771 9.41276 7.86653 9.46756C7.99535 9.52236 8.10106 9.61063 8.16883 9.71996C8.23661 9.8293 8.26304 9.95422 8.24441 10.0772C8.22476 10.207 8.15601 10.3275 8.04886 10.42C7.9417 10.5126 7.80214 10.572 7.65188 10.5889ZM7.65188 7.62018C7.50949 7.63626 7.36485 7.61343 7.23825 7.5549C7.11165 7.49637 7.00945 7.40507 6.94599 7.29382C6.88253 7.18257 6.861 7.05695 6.88443 6.9346C6.90785 6.81224 6.97504 6.69929 7.07658 6.6116C7.17812 6.5239 7.30891 6.46587 7.45058 6.44564C7.59226 6.42541 7.73771 6.44401 7.86653 6.49881C7.99535 6.55361 8.10106 6.64188 8.16883 6.75121C8.23661 6.86055 8.26304 6.98547 8.24441 7.10844C8.22476 7.23821 8.15601 7.35874 8.04886 7.45128C7.9417 7.54383 7.80214 7.6032 7.65188 7.62018ZM7.65188 4.65143C7.50949 4.66751 7.36485 4.64468 7.23825 4.58615C7.11165 4.52762 7.00945 4.43632 6.94599 4.32507C6.88253 4.21382 6.861 4.0882 6.88443 3.96585C6.90785 3.84349 6.97504 3.73054 7.07658 3.64284C7.17812 3.55515 7.30891 3.49712 7.45058 3.47689C7.59226 3.45666 7.73771 3.47526 7.86653 3.53006C7.99535 3.58486 8.10106 3.67313 8.16883 3.78246C8.23661 3.8918 8.26304 4.01672 8.24441 4.13969C8.22476 4.26946 8.15601 4.38999 8.04886 4.48253C7.9417 4.57508 7.80214 4.63445 7.65188 4.65143ZM11.0894 16.5264C10.947 16.5425 10.8023 16.5197 10.6757 16.4612C10.5491 16.4026 10.4469 16.3113 10.3835 16.2001C10.32 16.0888 10.2985 15.9632 10.3219 15.8408C10.3453 15.7185 10.4125 15.6055 10.5141 15.5178C10.6156 15.4302 10.7464 15.3721 10.8881 15.3519C11.0298 15.3317 11.1752 15.3503 11.304 15.4051C11.4328 15.4599 11.5386 15.5481 11.6063 15.6575C11.6741 15.7668 11.7005 15.8917 11.6819 16.0147C11.6623 16.1445 11.5935 16.265 11.4864 16.3575C11.3792 16.4501 11.2396 16.5095 11.0894 16.5264ZM11.0894 13.5577C10.947 13.5738 10.8023 13.5509 10.6757 13.4924C10.5491 13.4339 10.4469 13.3426 10.3835 13.2313C10.32 13.1201 10.2985 12.9945 10.3219 12.8721C10.3453 12.7497 10.4125 12.6368 10.5141 12.5491C10.6156 12.4614 10.7464 12.4034 10.8881 12.3831C11.0298 12.3629 11.1752 12.3815 11.304 12.4363C11.4328 12.4911 11.5386 12.5794 11.6063 12.6887C11.6741 12.798 11.7005 12.923 11.6819 13.0459C11.6623 13.1757 11.5935 13.2962 11.4864 13.3888C11.3792 13.4813 11.2396 13.5407 11.0894 13.5577ZM11.0894 10.5889C10.947 10.605 10.8023 10.5822 10.6757 10.5237C10.5491 10.4651 10.4469 10.3738 10.3835 10.2626C10.32 10.1513 10.2985 10.0257 10.3219 9.90335C10.3453 9.78099 10.4125 9.66804 10.5141 9.58035C10.6156 9.49265 10.7464 9.43462 10.8881 9.41439C11.0298 9.39416 11.1752 9.41276 11.304 9.46756C11.4328 9.52236 11.5386 9.61063 11.6063 9.71996C11.6741 9.8293 11.7005 9.95422 11.6819 10.0772C11.6623 10.207 11.5935 10.3275 11.4864 10.42C11.3792 10.5126 11.2396 10.572 11.0894 10.5889ZM11.0894 7.62018C10.947 7.63626 10.8023 7.61343 10.6757 7.5549C10.5491 7.49637 10.4469 7.40507 10.3835 7.29382C10.32 7.18257 10.2985 7.05695 10.3219 6.9346C10.3453 6.81224 10.4125 6.69929 10.5141 6.6116C10.6156 6.5239 10.7464 6.46587 10.8881 6.44564C11.0298 6.42541 11.1752 6.44401 11.304 6.49881C11.4328 6.55361 11.5386 6.64188 11.6063 6.75121C11.6741 6.86055 11.7005 6.98547 11.6819 7.10844C11.6623 7.23821 11.5935 7.35874 11.4864 7.45128C11.3792 7.54383 11.2396 7.6032 11.0894 7.62018ZM11.0894 4.65143C10.947 4.66751 10.8023 4.64468 10.6757 4.58615C10.5491 4.52762 10.4469 4.43632 10.3835 4.32507C10.32 4.21382 10.2985 4.0882 10.3219 3.96585C10.3453 3.84349 10.4125 3.73054 10.5141 3.64284C10.6156 3.55515 10.7464 3.49712 10.8881 3.47689C11.0298 3.45666 11.1752 3.47526 11.304 3.53006C11.4328 3.58486 11.5386 3.67313 11.6063 3.78246C11.6741 3.8918 11.7005 4.01672 11.6819 4.13969C11.6623 4.26946 11.5935 4.38999 11.4864 4.48253C11.3792 4.57508 11.2396 4.63445 11.0894 4.65143ZM19.0781 17.7188H13.75V8.21875H18.5625C18.7448 8.21875 18.9197 8.28131 19.0486 8.39266C19.1776 8.504 19.25 8.65503 19.25 8.8125V17.5703C19.25 17.6097 19.2319 17.6474 19.1997 17.6753C19.1674 17.7031 19.1237 17.7188 19.0781 17.7188Z" fill="#5C6474"/>
<path d="M17.1875 15.3438C17.0515 15.3438 16.9186 15.3786 16.8055 15.4438C16.6925 15.5091 16.6044 15.6018 16.5523 15.7103C16.5003 15.8188 16.4867 15.9382 16.5132 16.0533C16.5397 16.1685 16.6052 16.2743 16.7014 16.3573C16.7975 16.4404 16.92 16.4969 17.0534 16.5198C17.1867 16.5428 17.325 16.531 17.4506 16.4861C17.5762 16.4411 17.6836 16.365 17.7591 16.2674C17.8347 16.1697 17.875 16.0549 17.875 15.9375C17.875 15.78 17.8026 15.629 17.6736 15.5177C17.5447 15.4063 17.3698 15.3438 17.1875 15.3438Z" fill="#5C6474"/>
<path d="M17.1875 12.375C17.0515 12.375 16.9186 12.4098 16.8055 12.4751C16.6925 12.5403 16.6044 12.633 16.5523 12.7415C16.5003 12.85 16.4867 12.9694 16.5132 13.0846C16.5397 13.1998 16.6052 13.3056 16.7014 13.3886C16.7975 13.4716 16.92 13.5282 17.0534 13.5511C17.1867 13.574 17.325 13.5622 17.4506 13.5173C17.5762 13.4724 17.6836 13.3963 17.7591 13.2986C17.8347 13.201 17.875 13.0862 17.875 12.9688C17.875 12.8113 17.8026 12.6603 17.6736 12.5489C17.5447 12.4376 17.3698 12.375 17.1875 12.375Z" fill="#5C6474"/>
<path d="M17.1875 9.40625C17.0515 9.40625 16.9186 9.44107 16.8055 9.50631C16.6925 9.57156 16.6044 9.66429 16.5523 9.77278C16.5003 9.88128 16.4867 10.0007 16.5132 10.1158C16.5397 10.231 16.6052 10.3368 16.7014 10.4198C16.7975 10.5029 16.92 10.5594 17.0534 10.5823C17.1867 10.6053 17.325 10.5935 17.4506 10.5486C17.5762 10.5036 17.6836 10.4275 17.7591 10.3299C17.8347 10.2322 17.875 10.1174 17.875 10C17.875 9.84253 17.8026 9.69151 17.6736 9.58016C17.5447 9.46881 17.3698 9.40625 17.1875 9.40625Z" fill="#5C6474"/>
<path d="M14.4375 15.3438C14.3015 15.3438 14.1686 15.3786 14.0555 15.4438C13.9425 15.5091 13.8544 15.6018 13.8023 15.7103C13.7503 15.8188 13.7367 15.9382 13.7632 16.0533C13.7897 16.1685 13.8552 16.2743 13.9514 16.3573C14.0475 16.4404 14.17 16.4969 14.3034 16.5198C14.4367 16.5428 14.575 16.531 14.7006 16.4861C14.8262 16.4411 14.9336 16.365 15.0091 16.2674C15.0847 16.1697 15.125 16.0549 15.125 15.9375C15.125 15.78 15.0526 15.629 14.9236 15.5177C14.7947 15.4063 14.6198 15.3438 14.4375 15.3438Z" fill="#5C6474"/>
<path d="M14.4375 12.375C14.3015 12.375 14.1686 12.4098 14.0555 12.4751C13.9425 12.5403 13.8544 12.633 13.8023 12.7415C13.7503 12.85 13.7367 12.9694 13.7632 13.0846C13.7897 13.1998 13.8552 13.3056 13.9514 13.3886C14.0475 13.4716 14.17 13.5282 14.3034 13.5511C14.4367 13.574 14.575 13.5622 14.7006 13.5173C14.8262 13.4724 14.9336 13.3963 15.0091 13.2986C15.0847 13.201 15.125 13.0862 15.125 12.9688C15.125 12.8113 15.0526 12.6603 14.9236 12.5489C14.7947 12.4376 14.6198 12.375 14.4375 12.375Z" fill="#5C6474"/>
<path d="M14.4375 9.40625C14.3015 9.40625 14.1686 9.44107 14.0555 9.50631C13.9425 9.57156 13.8544 9.66429 13.8023 9.77278C13.7503 9.88128 13.7367 10.0007 13.7632 10.1158C13.7897 10.231 13.8552 10.3368 13.9514 10.4198C14.0475 10.5029 14.17 10.5594 14.3034 10.5823C14.4367 10.6053 14.575 10.5935 14.7006 10.5486C14.8262 10.5036 14.9336 10.4275 15.0091 10.3299C15.0847 10.2322 15.125 10.1174 15.125 10C15.125 9.84253 15.0526 9.69151 14.9236 9.58016C14.7947 9.46881 14.6198 9.40625 14.4375 9.40625Z" fill="#5C6474"/>
</svg>
