<svg width="46" height="45" viewBox="0 0 46 45" fill="none" xmlns="http://www.w3.org/2000/svg">
<path d="M39.1722 0.571433L2.6097 21.6564C-0.413734 23.4054 -0.123694 27.879 3.11068 29.2062L13.1566 33.3634V40.7814C13.1566 44.8595 18.3597 46.5382 20.7679 43.2951L24.6175 38.1007L34.4525 42.1613C34.971 42.3722 35.516 42.4777 36.0609 42.4777C36.7816 42.4777 37.4935 42.2931 38.1351 41.9328C39.2601 41.2999 40.0335 40.1749 40.2357 38.9005L45.4564 4.86928C45.9925 1.34487 42.2132 -1.17759 39.1722 0.571433ZM17.3753 40.7814V35.1037L20.5921 36.4308L17.3753 40.7814ZM36.0609 38.2589L22.5433 32.6779L34.8656 14.8976C35.806 13.5353 34.0306 11.9533 32.7826 13.0343L14.1937 29.2326L4.71908 25.3126L41.2816 4.21889L36.0609 38.2589Z" fill="#8D35AA"/>
</svg>
