<svg width="72" height="71" viewBox="0 0 72 71" fill="none" xmlns="http://www.w3.org/2000/svg">
<path d="M36 71C16.3918 71 0.5 55.1082 0.5 35.5C0.5 15.8918 16.3918 0 36 0C55.6082 0 71.5 15.8918 71.5 35.5C71.5 55.1082 55.6082 71 36 71ZM32.6719 35.5C32.6719 36.6094 33.2266 37.6494 34.1557 38.1486L47.4682 47.0236C48.9936 48.1607 51.0598 47.7447 51.9611 46.2193C53.0982 44.6939 52.6822 42.6277 51.1568 41.6016L39.3281 33.725V16.6406C39.3281 14.7963 37.8443 13.3125 35.8752 13.3125C34.1557 13.3125 32.5471 14.7963 32.5471 16.6406L32.6719 35.5Z" fill="black" fill-opacity="0.7"/>
</svg>
