<svg width="21" height="21" viewBox="0 0 21 21" fill="none" xmlns="http://www.w3.org/2000/svg">
<path fill-rule="evenodd" clip-rule="evenodd" d="M9.87187 7.375H9.87C8.835 7.375 7.995 8.215 7.995 9.25C7.995 10.285 8.835 11.125 9.87 11.125H11.12C11.465 11.125 11.745 11.405 11.745 11.75C11.745 12.095 11.465 12.375 11.12 12.375H9.245C8.9 12.375 8.62 12.655 8.62 13C8.62 13.345 8.9 13.625 9.245 13.625H9.87187V14.25C9.87187 14.595 10.1519 14.875 10.4969 14.875C10.8419 14.875 11.1219 14.595 11.1219 14.25V13.625C12.1556 13.6238 12.995 12.7844 12.995 11.75C12.995 10.715 12.155 9.875 11.12 9.875H9.87C9.525 9.875 9.245 9.595 9.245 9.25C9.245 8.905 9.525 8.625 9.87 8.625H11.745C12.09 8.625 12.37 8.345 12.37 8C12.37 7.655 12.09 7.375 11.745 7.375H11.1219V6.75C11.1219 6.405 10.8419 6.125 10.4969 6.125C10.1519 6.125 9.87187 6.405 9.87187 6.75V7.375Z" fill="#4F1762"/>
<path fill-rule="evenodd" clip-rule="evenodd" d="M6.93937 4.87498H17.995C18.1606 4.87498 18.3194 4.94061 18.4369 5.05811C18.5537 5.17498 18.62 5.33436 18.62 5.49998V16.75C18.62 17.095 18.9 17.375 19.245 17.375C19.59 17.375 19.87 17.095 19.87 16.75V5.49998C19.87 5.00248 19.6725 4.52561 19.3206 4.17436C18.9687 3.82248 18.4919 3.62498 17.995 3.62498H6.93937L8.03437 2.89498C8.32125 2.70373 8.39875 2.31561 8.2075 2.02811C8.01625 1.74123 7.62812 1.66373 7.34062 1.85498L4.52813 3.72998C4.35438 3.84561 4.25 4.04123 4.25 4.24998C4.25 4.45873 4.35438 4.65436 4.52813 4.76998L7.34062 6.64498C7.62812 6.83623 8.01625 6.75873 8.2075 6.47186C8.39875 6.18436 8.32125 5.79623 8.03437 5.60498L6.93937 4.87498Z" fill="#4F1762"/>
<path fill-rule="evenodd" clip-rule="evenodd" d="M14.0606 17.375L12.9656 18.105C12.6787 18.2962 12.6012 18.6844 12.7925 18.9719C12.9837 19.2587 13.3719 19.3363 13.6594 19.145L16.4719 17.27C16.6456 17.1544 16.75 16.9587 16.75 16.75C16.75 16.5413 16.6456 16.3456 16.4719 16.23L13.6594 14.355C13.3719 14.1637 12.9837 14.2413 12.7925 14.5281C12.6012 14.8156 12.6787 15.2038 12.9656 15.395L14.0606 16.125H2.995C2.82937 16.125 2.67 16.0594 2.55312 15.9419C2.43562 15.825 2.37 15.6656 2.37 15.5V4.25C2.37 3.905 2.09 3.625 1.745 3.625C1.4 3.625 1.12 3.905 1.12 4.25V15.5C1.12 15.9975 1.3175 16.4744 1.66875 16.8256C2.02062 17.1775 2.4975 17.375 2.995 17.375H14.0606Z" fill="#4F1762"/>
</svg>
