<svg width="50" height="50" viewBox="0 0 50 50" fill="none" xmlns="http://www.w3.org/2000/svg">
<path fill-rule="evenodd" clip-rule="evenodd" d="M23.4295 17.1875H23.4248C20.8373 17.1875 18.7373 19.2875 18.7373 21.875C18.7373 24.4625 20.8373 26.5625 23.4248 26.5625H26.5498C27.4123 26.5625 28.1123 27.2625 28.1123 28.125C28.1123 28.9875 27.4123 29.6875 26.5498 29.6875H21.8623C20.9998 29.6875 20.2998 30.3875 20.2998 31.25C20.2998 32.1125 20.9998 32.8125 21.8623 32.8125H23.4295V34.375C23.4295 35.2375 24.1295 35.9375 24.992 35.9375C25.8545 35.9375 26.5545 35.2375 26.5545 34.375V32.8125C29.1389 32.8094 31.2373 30.7109 31.2373 28.125C31.2373 25.5375 29.1373 23.4375 26.5498 23.4375H23.4248C22.5623 23.4375 21.8623 22.7375 21.8623 21.875C21.8623 21.0125 22.5623 20.3125 23.4248 20.3125H28.1123C28.9748 20.3125 29.6748 19.6125 29.6748 18.75C29.6748 17.8875 28.9748 17.1875 28.1123 17.1875H26.5545V15.625C26.5545 14.7625 25.8545 14.0625 24.992 14.0625C24.1295 14.0625 23.4295 14.7625 23.4295 15.625V17.1875Z" fill="#8D35AA"/>
<path fill-rule="evenodd" clip-rule="evenodd" d="M16.0984 10.9374H43.7375C44.1516 10.9374 44.5484 11.1015 44.8422 11.3952C45.1344 11.6874 45.3 12.0859 45.3 12.4999V40.6249C45.3 41.4874 46 42.1874 46.8625 42.1874C47.725 42.1874 48.425 41.4874 48.425 40.6249V12.4999C48.425 11.2562 47.9312 10.064 47.0516 9.18586C46.1719 8.30617 44.9797 7.81242 43.7375 7.81242H16.0984L18.8359 5.98742C19.5531 5.5093 19.7469 4.53898 19.2687 3.82023C18.7906 3.10305 17.8203 2.9093 17.1016 3.38742L10.0703 8.07492C9.63594 8.36399 9.375 8.85305 9.375 9.37492C9.375 9.8968 9.63594 10.3859 10.0703 10.6749L17.1016 15.3624C17.8203 15.8405 18.7906 15.6468 19.2687 14.9296C19.7469 14.2109 19.5531 13.2405 18.8359 12.7624L16.0984 10.9374Z" fill="#8D35AA"/>
<path fill-rule="evenodd" clip-rule="evenodd" d="M33.9014 42.1875L31.1639 44.0125C30.4467 44.4906 30.2529 45.4609 30.7311 46.1797C31.2092 46.8969 32.1795 47.0906 32.8982 46.6125L39.9295 41.925C40.3639 41.6359 40.6248 41.1469 40.6248 40.625C40.6248 40.1031 40.3639 39.6141 39.9295 39.325L32.8982 34.6375C32.1795 34.1594 31.2092 34.3531 30.7311 35.0703C30.2529 35.7891 30.4467 36.7594 31.1639 37.2375L33.9014 39.0625H6.23731C5.82324 39.0625 5.42481 38.8984 5.13262 38.6047C4.83887 38.3125 4.6748 37.9141 4.6748 37.5V9.375C4.6748 8.5125 3.9748 7.8125 3.1123 7.8125C2.2498 7.8125 1.5498 8.5125 1.5498 9.375V37.5C1.5498 38.7437 2.04355 39.9359 2.92168 40.8141C3.80137 41.6938 4.99355 42.1875 6.23731 42.1875H33.9014Z" fill="#8D35AA"/>
</svg>
