<svg width="41" height="42" viewBox="0 0 41 42" fill="none" xmlns="http://www.w3.org/2000/svg">
<path d="M33 41.3125H8C5.928 41.3125 3.94086 40.4894 2.47573 39.0243C1.0106 37.5591 0.1875 35.572 0.1875 33.5V11.625C0.1875 11.2106 0.35212 10.8132 0.645146 10.5201C0.938171 10.2271 1.3356 10.0625 1.75 10.0625H33C35.072 10.0625 37.0591 10.8856 38.5243 12.3507C39.9894 13.8159 40.8125 15.803 40.8125 17.875V33.5C40.8125 35.572 39.9894 37.5591 38.5243 39.0243C37.0591 40.4894 35.072 41.3125 33 41.3125ZM3.3125 13.1875V33.5C3.3125 34.7432 3.80636 35.9355 4.68544 36.8146C5.56451 37.6936 6.7568 38.1875 8 38.1875H33C34.2432 38.1875 35.4355 37.6936 36.3146 36.8146C37.1936 35.9355 37.6875 34.7432 37.6875 33.5V17.875C37.6875 16.6318 37.1936 15.4395 36.3146 14.5604C35.4355 13.6814 34.2432 13.1875 33 13.1875H3.3125Z" fill="#8D35AA"/>
<path d="M36.1252 13.1875C35.7108 13.1875 35.3133 13.0229 35.0203 12.7299C34.7273 12.4369 34.5627 12.0394 34.5627 11.625V7.32815C34.5926 6.78079 34.4986 6.23373 34.2875 5.7278C34.0765 5.22187 33.7539 4.77012 33.3439 4.40627C32.9755 4.13027 32.5491 3.9418 32.0969 3.85516C31.6448 3.76853 31.1789 3.78601 30.7345 3.90627L4.53142 9.8594C4.17895 9.93878 3.86488 10.1379 3.64267 10.4227C3.42046 10.7076 3.30385 11.0607 3.31267 11.4219C3.31267 11.8363 3.14805 12.2337 2.85503 12.5268C2.562 12.8198 2.16457 12.9844 1.75017 12.9844C1.33577 12.9844 0.938344 12.8198 0.645318 12.5268C0.352293 12.2337 0.187673 11.8363 0.187673 11.4219C0.178505 10.3538 0.534426 9.31453 1.1965 8.47628C1.85858 7.63803 2.78709 7.05104 3.8283 6.81252L30.0471 0.859399C30.9488 0.631392 31.8907 0.612824 32.8007 0.805117C33.7107 0.997411 34.5647 1.39546 35.2971 1.96877C36.0715 2.62603 36.6883 3.44885 37.1021 4.37647C37.5159 5.30409 37.716 6.31282 37.6877 7.32815V11.625C37.6877 12.0394 37.5231 12.4369 37.23 12.7299C36.937 13.0229 36.5396 13.1875 36.1252 13.1875Z" fill="#8D35AA"/>
<path d="M39.25 31.9375H28.3125C26.6549 31.9375 25.0652 31.279 23.8931 30.1069C22.721 28.9348 22.0625 27.3451 22.0625 25.6875C22.0625 24.0299 22.721 22.4402 23.8931 21.2681C25.0652 20.096 26.6549 19.4375 28.3125 19.4375H39.25C39.6644 19.4375 40.0618 19.6021 40.3549 19.8951C40.6479 20.1882 40.8125 20.5856 40.8125 21V30.375C40.8125 30.7894 40.6479 31.1868 40.3549 31.4799C40.0618 31.7729 39.6644 31.9375 39.25 31.9375ZM28.3125 22.5625C27.4837 22.5625 26.6888 22.8917 26.1028 23.4778C25.5167 24.0638 25.1875 24.8587 25.1875 25.6875C25.1875 26.5163 25.5167 27.3112 26.1028 27.8972C26.6888 28.4833 27.4837 28.8125 28.3125 28.8125H37.6875V22.5625H28.3125Z" fill="#8D35AA"/>
</svg>
